<svg xmlns="http://www.w3.org/2000/svg" version="1.1" xmlns:xlink="http://www.w3.org/1999/xlink" xmlns:svgjs="http://svgjs.dev/svgjs" width="1440" height="560" preserveAspectRatio="none" viewBox="0 0 1440 560"><g mask="url(&quot;#SvgjsMask1015&quot;)" fill="none"><path d="M808.21,211.426C849.081,212.536,889.713,195.705,910.775,160.661C932.43,124.63,930.336,79.478,909.436,43.003C888.413,6.313,850.461,-20.048,808.21,-18.338C768.302,-16.723,739.152,15.477,720.243,50.658C702.513,83.644,696.885,122.488,714.861,155.341C733.537,189.473,769.317,210.37,808.21,211.426" fill="rgba(28, 83, 142, 0.4)" class="triangle-float2"></path><path d="M1120.963,100.355C1134.737,100.001,1147.776,94.343,1155.304,82.802C1163.634,70.032,1167.265,53.838,1160.076,40.392C1152.531,26.281,1136.956,18.057,1120.963,18.575C1105.778,19.067,1093.514,29.584,1086.009,42.794C1078.609,55.82,1075.649,71.842,1083.425,84.647C1090.971,97.073,1106.43,100.728,1120.963,100.355" fill="rgba(28, 83, 142, 0.4)" class="triangle-float3"></path><path d="M572.97,350.655C594.081,349.682,609.638,333.003,619.742,314.442C629.321,296.844,632.689,276.086,623.155,258.464C613.174,240.016,593.943,228.291,572.97,227.995C551.479,227.692,531.358,238.599,520.269,257.011C508.812,276.033,507.193,299.775,518.084,319.127C529.175,338.834,550.38,351.696,572.97,350.655" fill="rgba(28, 83, 142, 0.4)" class="triangle-float3"></path><path d="M43.03,366.137C69.081,367.676,98.646,362.69,111.157,339.789C123.377,317.42,109.339,291.564,95.443,270.196C83.15,251.293,65.531,236.506,43.03,235.03C17.604,233.363,-10.208,240.297,-22.814,262.441C-35.329,284.426,-26.005,311.129,-12.445,332.485C-0.019,352.054,19.889,364.77,43.03,366.137" fill="rgba(28, 83, 142, 0.4)" class="triangle-float2"></path><path d="M292.688,585.233C348.338,582.883,384.808,532.573,410.55,483.178C433.921,438.335,445.474,385.302,419.493,341.919C394.082,299.487,342.096,288.611,292.688,286.37C237.529,283.868,174.591,283.296,144.256,329.433C111.887,378.664,126.657,442.954,156.228,493.915C185.67,544.654,234.078,587.707,292.688,585.233" fill="rgba(28, 83, 142, 0.4)" class="triangle-float1"></path><path d="M1364.93,507.706C1386.939,506.911,1409.082,500.811,1421.128,482.375C1434.337,462.16,1438.275,435.454,1425.551,414.93C1413.332,395.22,1388.12,391.759,1364.93,391.727C1341.664,391.695,1316.976,395.44,1304.017,414.762C1289.688,436.126,1287.126,465.194,1301.226,486.709C1314.362,506.752,1340.982,508.572,1364.93,507.706" fill="rgba(28, 83, 142, 0.4)" class="triangle-float3"></path><path d="M1310.77,343.61C1348.021,343.295,1376.878,314.305,1394.52,281.495C1411.121,250.621,1412.183,214.961,1396.912,183.408C1379.14,146.688,1351.553,109.456,1310.77,108.452C1268.851,107.42,1235.533,141.385,1216.953,178.976C1200.453,212.359,1206.096,250.577,1224.533,282.931C1243.185,315.662,1273.099,343.928,1310.77,343.61" fill="rgba(28, 83, 142, 0.4)" class="triangle-float3"></path><path d="M651.385,520.673C686.894,518.978,708.952,485.913,725.79,454.605C741.471,425.447,750.524,392.504,736.426,362.549C720.046,327.745,689.846,295.922,651.385,296.516C613.576,297.1,588.472,331.69,570.775,365.107C554.471,395.894,547.536,431.42,563.564,462.351C580.892,495.792,613.764,522.469,651.385,520.673" fill="rgba(28, 83, 142, 0.4)" class="triangle-float2"></path><path d="M946.668,669.756C994.072,667.17,1030.131,632.712,1054.332,591.87C1079.146,549.995,1095.101,500.153,1072.806,456.884C1048.878,410.446,998.871,380.974,946.668,382.927C897.285,384.774,860.879,423.119,835.881,465.748C810.501,509.028,792.588,560.753,816.532,604.844C841.327,650.502,894.789,672.586,946.668,669.756" fill="rgba(28, 83, 142, 0.4)" class="triangle-float1"></path><path d="M1173.497,665.665C1210.869,665.354,1245.494,647.717,1265.72,616.29C1287.886,581.847,1300.93,536.699,1278.59,502.369C1257.407,469.816,1212.304,473.018,1173.497,474.568C1138.444,475.968,1101.383,480.978,1082.008,510.224C1060.762,542.295,1059.065,584.693,1078.578,617.847C1097.839,650.571,1135.526,665.981,1173.497,665.665" fill="rgba(28, 83, 142, 0.4)" class="triangle-float1"></path><path d="M383.747,332.797C438.735,331.683,487.19,299.553,514.763,251.965C542.414,204.241,546.117,146.238,519.98,97.668C492.415,46.445,441.884,6.564,383.747,8.506C328.11,10.365,289.784,57.796,262.418,106.273C235.65,153.689,217.494,209.467,243.203,257.466C270.101,307.685,326.79,333.951,383.747,332.797" fill="rgba(28, 83, 142, 0.4)" class="triangle-float3"></path><path d="M432.996,374.582C466.178,375.526,499.154,363.613,517.495,335.945C537.908,305.15,543.928,265.734,526.875,232.959C508.554,197.748,472.568,170.459,432.996,173.544C396.764,176.368,377.313,213.156,361.451,245.854C348.094,273.387,341.569,304.615,356.435,331.363C371.694,358.818,401.599,373.689,432.996,374.582" fill="rgba(28, 83, 142, 0.4)" class="triangle-float3"></path><path d="M856.531,92.223C882.322,90.663,900.426,70.153,913.784,48.036C927.782,24.859,940.021,-2.034,928.16,-26.374C915.078,-53.218,886.36,-70.855,856.531,-69.451C828.586,-68.136,809.449,-44.505,795.701,-20.14C782.262,3.678,772.855,31.724,785.875,55.774C799.398,80.752,828.179,93.938,856.531,92.223" fill="rgba(28, 83, 142, 0.4)" class="triangle-float1"></path></g><defs><mask id="SvgjsMask1015"><rect width="1440" height="560" fill="#ffffff"></rect></mask><style>
                @keyframes float1 {
                    0%{transform: translate(0, 0)}
                    50%{transform: translate(-10px, 0)}
                    100%{transform: translate(0, 0)}
                }

                .triangle-float1 {
                    animation: float1 5s infinite;
                }

                @keyframes float2 {
                    0%{transform: translate(0, 0)}
                    50%{transform: translate(-5px, -5px)}
                    100%{transform: translate(0, 0)}
                }

                .triangle-float2 {
                    animation: float2 4s infinite;
                }

                @keyframes float3 {
                    0%{transform: translate(0, 0)}
                    50%{transform: translate(0, -10px)}
                    100%{transform: translate(0, 0)}
                }

                .triangle-float3 {
                    animation: float3 6s infinite;
                }
            </style></defs></svg>