<svg xmlns="http://www.w3.org/2000/svg" version="1.1" xmlns:xlink="http://www.w3.org/1999/xlink" xmlns:svgjs="http://svgjs.dev/svgjs" width="1440" height="560" preserveAspectRatio="none" viewBox="0 0 1440 560"><g mask="url(&quot;#SvgjsMask1045&quot;)" fill="none"><path d="M573.709,317.665C620.618,316.483,655.93,281.656,681.108,242.059C708.933,198.299,734.323,147.018,711.969,100.227C687.136,48.246,631.315,17.67,573.709,17.254C515.388,16.833,458.383,46.218,431.946,98.205C407.409,146.455,427.138,202.248,456.51,247.717C482.968,288.677,524.962,318.893,573.709,317.665" fill="rgba(28, 83, 142, 0.4)" class="triangle-float3"></path><path d="M150.65408033775873 382.3735505300624L210.38950045376737 318.3151551174757 146.3311050411807 258.57973500146704 86.59568492517204 322.63813041405376z" fill="rgba(28, 83, 142, 0.4)" class="triangle-float3"></path><path d="M1213.385,554.242C1241.929,553.458,1267.293,537.909,1282.168,513.534C1297.756,487.992,1303.61,456.276,1289.163,430.072C1274.277,403.072,1244.217,388.835,1213.385,388.775C1182.442,388.715,1152.774,403.1,1137.096,429.777C1121.216,456.797,1121.355,490.779,1137.733,517.5C1153.435,543.118,1183.349,555.067,1213.385,554.242" fill="rgba(28, 83, 142, 0.4)" class="triangle-float1"></path><path d="M311.858,146.764C334.723,147.19,354.882,133.723,367.07,114.373C380.23,93.479,387.492,67.338,375.471,45.769C363.204,23.759,337.055,15.103,311.858,15.307C287.064,15.508,261.669,24.905,250.003,46.784C238.847,67.706,247.62,92.218,260.095,112.382C271.776,131.262,289.661,146.351,311.858,146.764" fill="rgba(28, 83, 142, 0.4)" class="triangle-float3"></path><path d="M967.2553172356312 455.38840633170895L945.2854447956319 299.0646411674947 788.9616796314176 321.03451360749403 810.931552071417 477.3582787717083z" fill="rgba(28, 83, 142, 0.4)" class="triangle-float2"></path><path d="M676.559,396.187C697.236,395.361,714.134,381.739,724.66,363.923C735.407,345.735,741.021,323.329,730.398,305.068C719.821,286.886,697.565,280.138,676.559,281.233C657.486,282.227,641.893,294.104,631.639,310.217C620.371,327.924,611.591,349.447,621.311,368.049C631.569,387.682,654.426,397.071,676.559,396.187" fill="rgba(28, 83, 142, 0.4)" class="triangle-float3"></path><path d="M1263.566813872996 279.10753855145845L1198.9833619558408 157.64373130744275 1077.519554711825 222.2271832245978 1142.1030066289802 343.6909904686135z" fill="rgba(28, 83, 142, 0.4)" class="triangle-float3"></path><path d="M1480.5781602216414 383.37597799155105L1460.352652678094 288.2224462226943 1365.1991209092373 308.4479537662417 1385.4246284527846 403.60148553509845z" fill="rgba(28, 83, 142, 0.4)" class="triangle-float3"></path><path d="M237.60980519399445 134.44831342837256L243.05926055138204 30.466510880386664 139.07745800339615 25.017055522999073 133.62800264600855 128.99885807098497z" fill="rgba(28, 83, 142, 0.4)" class="triangle-float1"></path><path d="M975.5970160964841 41.37677800704886L1016.1600395033411 136.9372726650568 1111.720534161349 96.37424925819985 1071.157510754492 0.8137546001919063z" fill="rgba(28, 83, 142, 0.4)" class="triangle-float3"></path><path d="M767.8893502268405 314.88169827726693L632.1323865979214 331.55055744595535 648.8012457666098 467.3075210748745 784.5582093955289 450.63866190618603z" fill="rgba(28, 83, 142, 0.4)" class="triangle-float3"></path><path d="M1010.147,516.5C1066.884,514.552,1120.061,485.033,1146.402,434.744C1171.11,387.572,1157.215,332.657,1130.603,286.532C1103.974,240.378,1063.43,198.163,1010.147,198.584C957.393,199.001,920.86,243.645,892.943,288.409C862.612,337.044,830.47,393.708,856.667,444.689C884.335,498.534,949.645,518.577,1010.147,516.5" fill="rgba(28, 83, 142, 0.4)" class="triangle-float1"></path><path d="M559.375,210.237C575.948,210.698,593.245,205.204,601.535,190.847C609.826,176.489,606.371,158.486,597.255,144.637C589.031,132.142,574.308,125.906,559.375,126.795C545.892,127.598,535.692,137.243,528.58,148.726C520.946,161.052,514.6,175.645,521.091,188.609C528.124,202.656,543.672,209.8,559.375,210.237" fill="rgba(28, 83, 142, 0.4)" class="triangle-float2"></path><path d="M1078.7376264810705 206.71370389737314L940.8951461029956 172.3457135577574 906.5271557633798 310.18819393583226 1044.3696361414547 344.556184275448z" fill="rgba(28, 83, 142, 0.4)" class="triangle-float1"></path></g><defs><mask id="SvgjsMask1045"><rect width="1440" height="560" fill="#ffffff"></rect></mask><style>
                @keyframes float1 {
                    0%{transform: translate(0, 0)}
                    50%{transform: translate(-10px, 0)}
                    100%{transform: translate(0, 0)}
                }

                .triangle-float1 {
                    animation: float1 5s infinite;
                }

                @keyframes float2 {
                    0%{transform: translate(0, 0)}
                    50%{transform: translate(-5px, -5px)}
                    100%{transform: translate(0, 0)}
                }

                .triangle-float2 {
                    animation: float2 4s infinite;
                }

                @keyframes float3 {
                    0%{transform: translate(0, 0)}
                    50%{transform: translate(0, -10px)}
                    100%{transform: translate(0, 0)}
                }

                .triangle-float3 {
                    animation: float3 6s infinite;
                }
            </style></defs></svg>