<svg xmlns="http://www.w3.org/2000/svg" version="1.1" xmlns:xlink="http://www.w3.org/1999/xlink" xmlns:svgjs="http://svgjs.dev/svgjs" width="1440" height="560" preserveAspectRatio="none" viewBox="0 0 1440 560"><g mask="url(&quot;#SvgjsMask1052&quot;)" fill="none"><path d="M817.5775661039073 443.3153021420778L851.7928994938891 362.7090280278407 736.9712919896702 409.099968752096z" fill="rgba(28, 83, 142, 0.4)" class="triangle-float1"></path><path d="M1277.6822863744349 138.68685004933536L1204.3866630216503 239.36770330899958 1312.4380985396513 252.63475137400587z" fill="rgba(28, 83, 142, 0.4)" class="triangle-float1"></path><path d="M1027.688,296.381C1062.197,296.379,1094.182,278.862,1112.054,249.342C1130.607,218.697,1135.7,179.617,1116.806,149.181C1098.714,120.036,1061.989,112.987,1027.688,113.437C994.371,113.874,960.104,123.159,942.529,151.467C924.083,181.178,925.587,219.201,943.305,249.352C960.791,279.108,993.175,296.383,1027.688,296.381" fill="rgba(28, 83, 142, 0.4)" class="triangle-float1"></path><path d="M1069.206572632757 235.21856894948505L1063.2787426967527 400.45431559196254 1192.0603259529871 334.83682149672535z" fill="rgba(28, 83, 142, 0.4)" class="triangle-float2"></path><path d="M1387.2557305776652-71.9220276185209L1310.7122579733796 19.298930847273084 1401.9332164391735 95.8424034515588 1478.4766890434591 4.621444985764796z" fill="rgba(28, 83, 142, 0.4)" class="triangle-float1"></path><path d="M1333.25403258496 156.85242163959475L1276.057369913459 216.0812996835874 1393.4990183151983 272.2618546688423z" fill="rgba(28, 83, 142, 0.4)" class="triangle-float1"></path><path d="M766.9070383796409 132.33862200645834L860.4890239685187 12.559142627960767 740.7095445900211-81.02284296091705 647.1275590011433 38.75663641758052z" fill="rgba(28, 83, 142, 0.4)" class="triangle-float3"></path><path d="M994.093804266724 609.2926935661249L1061.8091649838332 457.2015032373082 909.7179746550166 389.4861425201989 842.0026139379073 541.5773328490155z" fill="rgba(28, 83, 142, 0.4)" class="triangle-float1"></path><path d="M415.58273414838146 356.08058539383893L330.17269969086124 403.4241405785353 462.9262893330778 441.49061985135916z" fill="rgba(28, 83, 142, 0.4)" class="triangle-float3"></path><path d="M340.131,245.47C387.151,243.546,416.53,199.107,437.866,157.163C456.783,119.974,463.188,77.793,444.364,40.557C423.503,-0.709,386.357,-37.275,340.131,-36.166C295.171,-35.087,266.124,6.083,244.215,45.359C223.056,83.29,208.711,126.607,227.484,165.773C248.792,210.229,290.873,247.486,340.131,245.47" fill="rgba(28, 83, 142, 0.4)" class="triangle-float2"></path><path d="M1386.728525507406 429.03987222263123L1513.927078252851 375.0472899238807 1459.9344959541006 247.8487371784356 1332.7359432086555 301.8413194771861z" fill="rgba(28, 83, 142, 0.4)" class="triangle-float1"></path><path d="M-44.51235365770983 49.390964006990544L18.059587328651673 149.52700171658356 118.19562503824469 86.95506073022204 55.62368405188318-13.18097697937096z" fill="rgba(28, 83, 142, 0.4)" class="triangle-float1"></path><path d="M1479.2418083616183 416.08462330302336L1541.1680884475018 327.6447298334148 1377.545108200147 278.9752564393938z" fill="rgba(28, 83, 142, 0.4)" class="triangle-float2"></path><path d="M535.9639897928834 371.72352083544735L472.1463464545998 372.83746194348294 505.7260797857949 468.0069563968905z" fill="rgba(28, 83, 142, 0.4)" class="triangle-float1"></path></g><defs><mask id="SvgjsMask1052"><rect width="1440" height="560" fill="#ffffff"></rect></mask><style>
                @keyframes float1 {
                    0%{transform: translate(0, 0)}
                    50%{transform: translate(-10px, 0)}
                    100%{transform: translate(0, 0)}
                }

                .triangle-float1 {
                    animation: float1 5s infinite;
                }

                @keyframes float2 {
                    0%{transform: translate(0, 0)}
                    50%{transform: translate(-5px, -5px)}
                    100%{transform: translate(0, 0)}
                }

                .triangle-float2 {
                    animation: float2 4s infinite;
                }

                @keyframes float3 {
                    0%{transform: translate(0, 0)}
                    50%{transform: translate(0, -10px)}
                    100%{transform: translate(0, 0)}
                }

                .triangle-float3 {
                    animation: float3 6s infinite;
                }
            </style></defs></svg>