<svg xmlns="http://www.w3.org/2000/svg" version="1.1" xmlns:xlink="http://www.w3.org/1999/xlink" xmlns:svgjs="http://svgjs.dev/svgjs" width="350" height="500" preserveAspectRatio="none" viewBox="0 0 350 500"><g mask="url(&quot;#SvgjsMask1054&quot;)" fill="none"><path d="M175 436.76C220.94 431.43 248.79 389.17 281.92 356.92 315.8 323.92 365.26 297.28 366.8 250 368.36 202.19 323.81 168.82 289.09 135.91 255.72 104.27 220.91 70.79 175 68.21 127.02 65.53 81.61 88.67 47.38 122.38 12.86 156.37-8.33 201.58-9.67 250-11.05 299.81 5.07 349.44 40.12 384.88 75.32 420.48 125.26 442.52 175 436.76" fill="rgba(102, 158, 216, 0.7)"></path><path d="M175 334.89C195.88 332.47 208.54 313.26 223.6 298.6 239 283.6 261.48 271.49 262.18 250 262.89 228.27 242.64 213.1 226.86 198.14 211.69 183.76 195.87 168.54 175 167.37 153.19 166.15 132.55 176.67 116.99 191.99 101.3 207.44 91.67 227.99 91.06 250 90.43 272.64 97.76 295.2 113.69 311.31 129.69 327.49 152.39 337.51 175 334.89" fill="rgba(15, 36, 90, 1)"></path></g><defs><mask id="SvgjsMask1054"><rect width="350" height="500" fill="#ffffff"></rect></mask></defs></svg>