<svg xmlns="http://www.w3.org/2000/svg" version="1.1" xmlns:xlink="http://www.w3.org/1999/xlink" xmlns:svgjs="http://svgjs.dev/svgjs" width="1440" height="560" preserveAspectRatio="none" viewBox="0 0 1440 560"><g mask="url(&quot;#SvgjsMask1001&quot;)" fill="none"><path d="M76.47 453.76L114.57 475.76L114.57 519.76L76.47 541.76L38.36 519.76L38.36 475.76zM152.68 189.76L190.78 211.76L190.78 255.76L152.68 277.76L114.57 255.76L114.57 211.76zM152.68 321.76L190.78 343.76L190.78 387.76L152.68 409.76L114.57 387.76L114.57 343.76zM152.68 453.76L190.78 475.76L190.78 519.76L152.68 541.76L114.57 519.76L114.57 475.76zM190.78 255.76L228.89 277.76L228.89 321.76L190.78 343.76L152.68 321.76L152.68 277.76zM190.78 519.76L228.89 541.76L228.89 585.76L190.78 607.76L152.68 585.76L152.68 541.76zM267 -8.24L305.1 13.76L305.1 57.76L267 79.76L228.89 57.76L228.89 13.76zM267 123.76L305.1 145.76L305.1 189.76L267 211.76L228.89 189.76L228.89 145.76zM305.1 189.76L343.21 211.76L343.21 255.76L305.1 277.76L267 255.76L267 211.76zM267 519.76L305.1 541.76L305.1 585.76L267 607.76L228.89 585.76L228.89 541.76zM381.32 57.76L419.42 79.76L419.42 123.76L381.32 145.76L343.21 123.76L343.21 79.76zM343.21 123.76L381.32 145.76L381.32 189.76L343.21 211.76L305.1 189.76L305.1 145.76zM381.32 189.76L419.42 211.76L419.42 255.76L381.32 277.76L343.21 255.76L343.21 211.76zM343.21 255.76L381.32 277.76L381.32 321.76L343.21 343.76L305.1 321.76L305.1 277.76zM457.53 57.76L495.63 79.76L495.63 123.76L457.53 145.76L419.42 123.76L419.42 79.76zM457.53 189.76L495.63 211.76L495.63 255.76L457.53 277.76L419.42 255.76L419.42 211.76zM419.42 255.76L457.53 277.76L457.53 321.76L419.42 343.76L381.32 321.76L381.32 277.76zM457.53 321.76L495.63 343.76L495.63 387.76L457.53 409.76L419.42 387.76L419.42 343.76zM419.42 387.76L457.53 409.76L457.53 453.76L419.42 475.76L381.32 453.76L381.32 409.76zM495.63 -8.24L533.74 13.76L533.74 57.76L495.63 79.76L457.53 57.76L457.53 13.76zM533.74 189.76L571.85 211.76L571.85 255.76L533.74 277.76L495.63 255.76L495.63 211.76zM533.74 453.76L571.85 475.76L571.85 519.76L533.74 541.76L495.63 519.76L495.63 475.76zM495.63 519.76L533.74 541.76L533.74 585.76L495.63 607.76L457.53 585.76L457.53 541.76zM571.85 -8.24L609.95 13.76L609.95 57.76L571.85 79.76L533.74 57.76L533.74 13.76zM609.95 57.76L648.06 79.76L648.06 123.76L609.95 145.76L571.85 123.76L571.85 79.76zM609.95 189.76L648.06 211.76L648.06 255.76L609.95 277.76L571.85 255.76L571.85 211.76zM609.95 453.76L648.06 475.76L648.06 519.76L609.95 541.76L571.85 519.76L571.85 475.76zM571.85 519.76L609.95 541.76L609.95 585.76L571.85 607.76L533.74 585.76L533.74 541.76zM648.06 -8.24L686.17 13.76L686.17 57.76L648.06 79.76L609.95 57.76L609.95 13.76zM686.17 321.76L724.27 343.76L724.27 387.76L686.17 409.76L648.06 387.76L648.06 343.76zM648.06 387.76L686.17 409.76L686.17 453.76L648.06 475.76L609.95 453.76L609.95 409.76zM724.27 -8.24L762.38 13.76L762.38 57.76L724.27 79.76L686.17 57.76L686.17 13.76zM762.38 57.76L800.48 79.76L800.48 123.76L762.38 145.76L724.27 123.76L724.27 79.76zM762.38 321.76L800.48 343.76L800.48 387.76L762.38 409.76L724.27 387.76L724.27 343.76zM724.27 519.76L762.38 541.76L762.38 585.76L724.27 607.76L686.17 585.76L686.17 541.76zM800.48 123.76L838.59 145.76L838.59 189.76L800.48 211.76L762.38 189.76L762.38 145.76zM800.48 255.76L838.59 277.76L838.59 321.76L800.48 343.76L762.38 321.76L762.38 277.76zM838.59 321.76L876.7 343.76L876.7 387.76L838.59 409.76L800.48 387.76L800.48 343.76zM800.48 519.76L838.59 541.76L838.59 585.76L800.48 607.76L762.38 585.76L762.38 541.76zM876.7 123.76L914.8 145.76L914.8 189.76L876.7 211.76L838.59 189.76L838.59 145.76zM914.8 321.76L952.91 343.76L952.91 387.76L914.8 409.76L876.7 387.76L876.7 343.76zM914.8 453.76L952.91 475.76L952.91 519.76L914.8 541.76L876.7 519.76L876.7 475.76zM876.7 519.76L914.8 541.76L914.8 585.76L876.7 607.76L838.59 585.76L838.59 541.76zM952.91 -8.24L991.01 13.76L991.01 57.76L952.91 79.76L914.8 57.76L914.8 13.76zM991.01 57.76L1029.12 79.76L1029.12 123.76L991.01 145.76L952.91 123.76L952.91 79.76zM991.01 453.76L1029.12 475.76L1029.12 519.76L991.01 541.76L952.91 519.76L952.91 475.76zM1029.12 -8.24L1067.23 13.76L1067.23 57.76L1029.12 79.76L991.01 57.76L991.01 13.76zM1029.12 123.76L1067.23 145.76L1067.23 189.76L1029.12 211.76L991.01 189.76L991.01 145.76zM1029.12 255.76L1067.23 277.76L1067.23 321.76L1029.12 343.76L991.01 321.76L991.01 277.76zM1029.12 387.76L1067.23 409.76L1067.23 453.76L1029.12 475.76L991.01 453.76L991.01 409.76zM1029.12 519.76L1067.23 541.76L1067.23 585.76L1029.12 607.76L991.01 585.76L991.01 541.76zM1143.44 57.76L1181.55 79.76L1181.55 123.76L1143.44 145.76L1105.33 123.76L1105.33 79.76zM1105.33 123.76L1143.44 145.76L1143.44 189.76L1105.33 211.76L1067.23 189.76L1067.23 145.76zM1105.33 255.76L1143.44 277.76L1143.44 321.76L1105.33 343.76L1067.23 321.76L1067.23 277.76zM1143.44 321.76L1181.55 343.76L1181.55 387.76L1143.44 409.76L1105.33 387.76L1105.33 343.76zM1219.65 57.76L1257.76 79.76L1257.76 123.76L1219.65 145.76L1181.55 123.76L1181.55 79.76zM1181.55 123.76L1219.65 145.76L1219.65 189.76L1181.55 211.76L1143.44 189.76L1143.44 145.76zM1219.65 321.76L1257.76 343.76L1257.76 387.76L1219.65 409.76L1181.55 387.76L1181.55 343.76zM1257.76 255.76L1295.86 277.76L1295.86 321.76L1257.76 343.76L1219.65 321.76L1219.65 277.76zM1333.97 -8.24L1372.08 13.76L1372.08 57.76L1333.97 79.76L1295.86 57.76L1295.86 13.76zM1372.08 189.76L1410.18 211.76L1410.18 255.76L1372.08 277.76L1333.97 255.76L1333.97 211.76zM1333.97 387.76L1372.08 409.76L1372.08 453.76L1333.97 475.76L1295.86 453.76L1295.86 409.76zM1372.08 453.76L1410.18 475.76L1410.18 519.76L1372.08 541.76L1333.97 519.76L1333.97 475.76zM1333.97 519.76L1372.08 541.76L1372.08 585.76L1333.97 607.76L1295.86 585.76L1295.86 541.76zM1448.29 57.76L1486.4 79.76L1486.4 123.76L1448.29 145.76L1410.18 123.76L1410.18 79.76zM1410.18 123.76L1448.29 145.76L1448.29 189.76L1410.18 211.76L1372.08 189.76L1372.08 145.76z" stroke="rgba(133, 138, 196, 1)" stroke-width="2"></path><path d="M47.39 -5.4L90.69 19.6L90.69 69.6L47.39 94.6L4.09 69.6L4.09 19.6zM90.69 69.6L134 94.6L134 144.6L90.69 169.6L47.39 144.6L47.39 94.6zM47.39 294.6L90.69 319.6L90.69 369.6L47.39 394.6L4.09 369.6L4.09 319.6zM90.69 369.6L134 394.6L134 444.6L90.69 469.6L47.39 444.6L47.39 394.6zM47.39 444.6L90.69 469.6L90.69 519.6L47.39 544.6L4.09 519.6L4.09 469.6zM134 -5.4L177.3 19.6L177.3 69.6L134 94.6L90.69 69.6L90.69 19.6zM134 144.6L177.3 169.6L177.3 219.6L134 244.6L90.69 219.6L90.69 169.6zM134 294.6L177.3 319.6L177.3 369.6L134 394.6L90.69 369.6L90.69 319.6zM177.3 519.6L220.6 544.6L220.6 594.6L177.3 619.6L134 594.6L134 544.6zM220.6 -5.4L263.9 19.6L263.9 69.6L220.6 94.6L177.3 69.6L177.3 19.6zM263.9 69.6L307.2 94.6L307.2 144.6L263.9 169.6L220.6 144.6L220.6 94.6zM220.6 444.6L263.9 469.6L263.9 519.6L220.6 544.6L177.3 519.6L177.3 469.6zM307.2 -5.4L350.51 19.6L350.51 69.6L307.2 94.6L263.9 69.6L263.9 19.6zM307.2 144.6L350.51 169.6L350.51 219.6L307.2 244.6L263.9 219.6L263.9 169.6zM350.51 369.6L393.81 394.6L393.81 444.6L350.51 469.6L307.2 444.6L307.2 394.6zM307.2 444.6L350.51 469.6L350.51 519.6L307.2 544.6L263.9 519.6L263.9 469.6zM437.11 69.6L480.42 94.6L480.42 144.6L437.11 169.6L393.81 144.6L393.81 94.6zM480.42 -5.4L523.72 19.6L523.72 69.6L480.42 94.6L437.11 69.6L437.11 19.6zM480.42 144.6L523.72 169.6L523.72 219.6L480.42 244.6L437.11 219.6L437.11 169.6zM523.72 219.6L567.02 244.6L567.02 294.6L523.72 319.6L480.42 294.6L480.42 244.6zM480.42 294.6L523.72 319.6L523.72 369.6L480.42 394.6L437.11 369.6L437.11 319.6zM523.72 369.6L567.02 394.6L567.02 444.6L523.72 469.6L480.42 444.6L480.42 394.6zM523.72 519.6L567.02 544.6L567.02 594.6L523.72 619.6L480.42 594.6L480.42 544.6zM567.02 -5.4L610.32 19.6L610.32 69.6L567.02 94.6L523.72 69.6L523.72 19.6zM610.32 69.6L653.63 94.6L653.63 144.6L610.32 169.6L567.02 144.6L567.02 94.6zM567.02 294.6L610.32 319.6L610.32 369.6L567.02 394.6L523.72 369.6L523.72 319.6zM653.63 444.6L696.93 469.6L696.93 519.6L653.63 544.6L610.32 519.6L610.32 469.6zM740.23 -5.4L783.53 19.6L783.53 69.6L740.23 94.6L696.93 69.6L696.93 19.6zM783.53 69.6L826.84 94.6L826.84 144.6L783.53 169.6L740.23 144.6L740.23 94.6zM740.23 144.6L783.53 169.6L783.53 219.6L740.23 244.6L696.93 219.6L696.93 169.6zM783.53 219.6L826.84 244.6L826.84 294.6L783.53 319.6L740.23 294.6L740.23 244.6zM783.53 369.6L826.84 394.6L826.84 444.6L783.53 469.6L740.23 444.6L740.23 394.6zM740.23 444.6L783.53 469.6L783.53 519.6L740.23 544.6L696.93 519.6L696.93 469.6zM783.53 519.6L826.84 544.6L826.84 594.6L783.53 619.6L740.23 594.6L740.23 544.6zM826.84 144.6L870.14 169.6L870.14 219.6L826.84 244.6L783.53 219.6L783.53 169.6zM870.14 369.6L913.44 394.6L913.44 444.6L870.14 469.6L826.84 444.6L826.84 394.6zM913.44 -5.4L956.74 19.6L956.74 69.6L913.44 94.6L870.14 69.6L870.14 19.6zM956.74 69.6L1000.05 94.6L1000.05 144.6L956.74 169.6L913.44 144.6L913.44 94.6zM913.44 144.6L956.74 169.6L956.74 219.6L913.44 244.6L870.14 219.6L870.14 169.6zM913.44 294.6L956.74 319.6L956.74 369.6L913.44 394.6L870.14 369.6L870.14 319.6zM956.74 369.6L1000.05 394.6L1000.05 444.6L956.74 469.6L913.44 444.6L913.44 394.6zM956.74 519.6L1000.05 544.6L1000.05 594.6L956.74 619.6L913.44 594.6L913.44 544.6zM1000.05 144.6L1043.35 169.6L1043.35 219.6L1000.05 244.6L956.74 219.6L956.74 169.6zM1043.35 219.6L1086.65 244.6L1086.65 294.6L1043.35 319.6L1000.05 294.6L1000.05 244.6zM1129.95 69.6L1173.26 94.6L1173.26 144.6L1129.95 169.6L1086.65 144.6L1086.65 94.6zM1129.95 219.6L1173.26 244.6L1173.26 294.6L1129.95 319.6L1086.65 294.6L1086.65 244.6zM1173.26 -5.4L1216.56 19.6L1216.56 69.6L1173.26 94.6L1129.95 69.6L1129.95 19.6zM1173.26 144.6L1216.56 169.6L1216.56 219.6L1173.26 244.6L1129.95 219.6L1129.95 169.6zM1216.56 219.6L1259.86 244.6L1259.86 294.6L1216.56 319.6L1173.26 294.6L1173.26 244.6zM1173.26 294.6L1216.56 319.6L1216.56 369.6L1173.26 394.6L1129.95 369.6L1129.95 319.6zM1216.56 519.6L1259.86 544.6L1259.86 594.6L1216.56 619.6L1173.26 594.6L1173.26 544.6zM1303.16 219.6L1346.47 244.6L1346.47 294.6L1303.16 319.6L1259.86 294.6L1259.86 244.6zM1259.86 294.6L1303.16 319.6L1303.16 369.6L1259.86 394.6L1216.56 369.6L1216.56 319.6zM1303.16 369.6L1346.47 394.6L1346.47 444.6L1303.16 469.6L1259.86 444.6L1259.86 394.6zM1259.86 444.6L1303.16 469.6L1303.16 519.6L1259.86 544.6L1216.56 519.6L1216.56 469.6zM1389.77 69.6L1433.07 94.6L1433.07 144.6L1389.77 169.6L1346.47 144.6L1346.47 94.6zM1346.47 294.6L1389.77 319.6L1389.77 369.6L1346.47 394.6L1303.16 369.6L1303.16 319.6zM1476.37 519.6L1519.68 544.6L1519.68 594.6L1476.37 619.6L1433.07 594.6L1433.07 544.6z" stroke="rgba(6, 80, 156, 0.93)" stroke-width="2"></path></g><defs><mask id="SvgjsMask1001"><rect width="1440" height="560" fill="#ffffff"></rect></mask></defs></svg>