<svg xmlns="http://www.w3.org/2000/svg" version="1.1" xmlns:xlink="http://www.w3.org/1999/xlink" xmlns:svgjs="http://svgjs.dev/svgjs" width="510" height="95" preserveAspectRatio="none" viewBox="0 0 510 95"><g mask="url(&quot;#SvgjsMask1007&quot;)" fill="none"><path d="M -116.6209587677696,36.5 C -91.02,42.9 -39.82,71.1 11.379041232230406,68.5 C 62.58,65.9 88.18,22.7 139.3790412322304,23.5 C 190.58,24.3 216.18,68.1 267.3790412322304,72.5 C 318.58,76.9 344.18,46.9 395.3790412322304,45.5 C 446.58,44.1 500.45,71.3 523.3790412322304,65.5 C 546.3,59.7 512.68,26.3 510,16.5" stroke="rgba(238, 237, 228, 1)" stroke-width="2" data-darkreader-inline-stroke="" style="--darkreader-inline-stroke: #dad7d2;"></path><path d="M -173.41943419489303,34.5 C -147.82,40.1 -96.62,60.9 -45.41943419489303,62.5 C 5.78,64.1 31.38,43.5 82.58056580510697,42.5 C 133.78,41.5 159.38,59.7 210.58056580510697,57.5 C 261.78,55.3 287.38,31.9 338.58056580510697,31.5 C 389.78,31.1 432.3,58.5 466.58056580510697,55.5 C 500.86,52.5 501.32,24.3 510,16.5" stroke="rgba(238, 237, 228, 1)" stroke-width="2" data-darkreader-inline-stroke="" style="--darkreader-inline-stroke: #dad7d2;"></path><path d="M -181.68046328552356,45.5 C -156.08,51.9 -104.88,78.3 -53.68046328552356,77.5 C -2.48,76.7 23.12,47.1 74.31953671447644,41.5 C 125.52,35.9 151.12,54.5 202.31953671447644,49.5 C 253.52,44.5 279.12,15.7 330.31953671447644,16.5 C 381.52,17.3 422.38,50.9 458.31953671447644,53.5 C 494.26,56.1 499.66,34.3 510,29.5" stroke="rgba(238, 237, 228, 1)" stroke-width="2" data-darkreader-inline-stroke="" style="--darkreader-inline-stroke: #dad7d2;"></path><path d="M -57.865046039322095,44.5 C -32.27,49.1 18.93,70.1 70.1349539606779,67.5 C 121.33,64.9 146.93,31.1 198.1349539606779,31.5 C 249.33,31.9 274.93,71.9 326.1349539606779,69.5 C 377.33,67.1 402.93,19.9 454.1349539606779,19.5 C 505.33,19.1 570.96,65.5 582.1349539606779,67.5 C 593.31,69.5 524.43,37.1 510,29.5" stroke="rgba(238, 237, 228, 1)" stroke-width="2" data-darkreader-inline-stroke="" style="--darkreader-inline-stroke: #dad7d2;"></path></g><defs><mask id="SvgjsMask1007"><rect width="510" height="95" fill="#ffffff" data-darkreader-inline-fill="" style="--darkreader-inline-fill: #181a1b;"></rect></mask></defs></svg>