<svg xmlns="http://www.w3.org/2000/svg" version="1.1" xmlns:xlink="http://www.w3.org/1999/xlink" xmlns:svgjs="http://svgjs.dev/svgjs" width="510" height="95" preserveAspectRatio="none" viewBox="0 0 510 95"><g mask="url(&quot;#SvgjsMask1018&quot;)" fill="none"><rect width="510" height="95" x="0" y="0" fill="rgba(44, 73, 113, 1)"></rect><path d="M271.4-9.41C229.48-9.37 189.54 11.25 105.01 11.49 20.49 11.73-18.65 50.18-61.37 50.44" stroke="rgba(238, 237, 228, 1)" stroke-width="2"></path><path d="M320.26-15.64C281.84-12.87 287.41 61.96 187.18 62 86.95 62.04-11.65 21.27-78.97 21.15" stroke="rgba(238, 237, 228, 1)" stroke-width="2"></path><path d="M360.03-15.12C311.61-14.56 269.33 38.9 174.15 39.39 78.98 39.88 35.26 66.87-11.72 66.94" stroke="rgba(238, 237, 228, 1)" stroke-width="2"></path><path d="M198.07-5.6C171.74-4.47 177.77 38.51 102.83 39.59 27.88 40.67-38.69 84.87-87.66 85.19" stroke="rgba(238, 237, 228, 1)" stroke-width="2"></path><path d="M231.72-8.91C197.73-3.25 206.76 79.66 126.35 79.92 45.95 80.18-31.18 50.54-84.38 50.47" stroke="rgba(238, 237, 228, 1)" stroke-width="2"></path></g><defs><mask id="SvgjsMask1018"><rect width="510" height="95" fill="#ffffff"></rect></mask></defs></svg>