<svg xmlns="http://www.w3.org/2000/svg" version="1.1" xmlns:xlink="http://www.w3.org/1999/xlink" xmlns:svgjs="http://svgjs.dev/svgjs" width="1440" height="560" preserveAspectRatio="none" viewBox="0 0 1440 560"><g clip-path="url(&quot;#SvgjsClipPath1003&quot;)" fill="none"><rect width="1440" height="560" x="0" y="0" fill="rgba(15, 36, 90, 1)"></rect><circle r="93.335" cx="-8.73" cy="-32.03" stroke="#b5bed1" stroke-opacity="0.25" stroke-width="2"></circle><circle r="93.335" cx="455.23" cy="322.19" stroke="#b5bed1" stroke-opacity="0.25" stroke-width="2"></circle><circle r="93.335" cx="767.98" cy="738.66" stroke="#b5bed1" stroke-opacity="0.25" stroke-width="2"></circle><circle r="176.17" cx="1413.55" cy="205.35" stroke="#b5bed1" stroke-opacity="0.25" stroke-width="2"></circle><circle r="173.12" cx="561.3" cy="242.12" stroke="#b5bed1" stroke-opacity="0.25" stroke-width="2"></circle><circle r="59.12" cx="707.25" cy="68.36" stroke="#b5bed1" stroke-opacity="0.25" stroke-width="2"></circle><circle r="181.07" cx="638.98" cy="71.81" stroke="#b5bed1" stroke-opacity="0.25" stroke-width="2"></circle><circle r="115.48" cx="1221.55" cy="57.92" stroke="#b5bed1" stroke-opacity="0.25" stroke-width="2"></circle><circle r="146.195" cx="117.85" cy="19.13" stroke="#b5bed1" stroke-opacity="0.25" stroke-width="2"></circle><circle r="181.125" cx="476.32" cy="370.35" stroke="#b5bed1" stroke-opacity="0.25" stroke-width="2"></circle><circle r="165.935" cx="611.93" cy="31.62" stroke="#b5bed1" stroke-opacity="0.25" stroke-width="2"></circle><circle r="126.595" cx="325.64" cy="243.48" stroke="#b5bed1" stroke-opacity="0.25" stroke-width="2"></circle><circle r="75.955" cx="527.61" cy="235.51" stroke="#b5bed1" stroke-opacity="0.25" stroke-width="2"></circle><circle r="65.69" cx="443.03" cy="454.56" stroke="#b5bed1" stroke-opacity="0.25" stroke-width="2"></circle><circle r="89.19" cx="67.05" cy="392.36" stroke="#b5bed1" stroke-opacity="0.25" stroke-width="2"></circle><circle r="47.92" cx="1395.31" cy="545.52" stroke="#b5bed1" stroke-opacity="0.25" stroke-width="2"></circle><circle r="62.035" cx="441.09" cy="485.6" stroke="#b5bed1" stroke-opacity="0.25" stroke-width="2"></circle><circle r="156.125" cx="1350.41" cy="231.27" stroke="#b5bed1" stroke-opacity="0.25" stroke-width="2"></circle><circle r="176.89" cx="39.28" cy="480.25" stroke="#b5bed1" stroke-opacity="0.25" stroke-width="2"></circle><circle r="76.255" cx="421.09" cy="406.77" stroke="#b5bed1" stroke-opacity="0.25" stroke-width="2"></circle><circle r="72.985" cx="287.95" cy="172.69" stroke="#b5bed1" stroke-opacity="0.25" stroke-width="2"></circle><circle r="143.79" cx="892.63" cy="390.98" stroke="#b5bed1" stroke-opacity="0.25" stroke-width="2"></circle><circle r="146.435" cx="1388.31" cy="167.03" stroke="#b5bed1" stroke-opacity="0.25" stroke-width="2"></circle><circle r="107.38" cx="1021.19" cy="128.1" stroke="#b5bed1" stroke-opacity="0.25" stroke-width="2"></circle><circle r="93.855" cx="406.58" cy="402.1" stroke="#b5bed1" stroke-opacity="0.25" stroke-width="2"></circle><circle r="163.075" cx="199.58" cy="410.32" stroke="#b5bed1" stroke-opacity="0.25" stroke-width="2"></circle><circle r="76.11" cx="408.62" cy="231.53" stroke="#b5bed1" stroke-opacity="0.25" stroke-width="2"></circle><circle r="169.265" cx="51" cy="383.21" stroke="#b5bed1" stroke-opacity="0.25" stroke-width="2"></circle><circle r="156.6" cx="128.28" cy="68.96" stroke="#b5bed1" stroke-opacity="0.25" stroke-width="2"></circle><circle r="182.85" cx="830.94" cy="202.27" stroke="#b5bed1" stroke-opacity="0.25" stroke-width="2"></circle><circle r="53.605" cx="817.98" cy="442.22" stroke="#b5bed1" stroke-opacity="0.25" stroke-width="2"></circle><circle r="70.625" cx="740.02" cy="115.43" stroke="#b5bed1" stroke-opacity="0.25" stroke-width="2"></circle><circle r="46.975" cx="1060.02" cy="56.48" stroke="#b5bed1" stroke-opacity="0.25" stroke-width="2"></circle><circle r="78.845" cx="771.51" cy="122.58" stroke="#b5bed1" stroke-opacity="0.25" stroke-width="2"></circle><circle r="137.435" cx="267.22" cy="539.43" stroke="#b5bed1" stroke-opacity="0.25" stroke-width="2"></circle><circle r="139.53" cx="139.8" cy="8.09" stroke="#b5bed1" stroke-opacity="0.25" stroke-width="2"></circle><circle r="172.605" cx="119.99" cy="358.46" stroke="#b5bed1" stroke-opacity="0.25" stroke-width="2"></circle><circle r="98.125" cx="176.23" cy="247.75" stroke="#b5bed1" stroke-opacity="0.25" stroke-width="2"></circle><circle r="137.44" cx="221.52" cy="83.91" stroke="#b5bed1" stroke-opacity="0.25" stroke-width="2"></circle><circle r="139.98" cx="1376.86" cy="170.45" stroke="#b5bed1" stroke-opacity="0.25" stroke-width="2"></circle></g><defs><clipPath id="SvgjsClipPath1003"><rect width="1440" height="560" x="0" y="0"></rect></clipPath></defs></svg>