<svg xmlns="http://www.w3.org/2000/svg" version="1.1" xmlns:xlink="http://www.w3.org/1999/xlink" xmlns:svgjs="http://svgjs.dev/svgjs" width="1440" height="560" preserveAspectRatio="none" viewBox="0 0 1440 560"><g mask="url(&quot;#SvgjsMask1002&quot;)" fill="none"><path d="M-98.25 540.19L-98.25 540.19" stroke="#132e65" stroke-width="1.5"></path><path d="M-98.25 540.19L-104.7 646.37" stroke="#132e65" stroke-width="1.5"></path><path d="M-98.25 540.19L57.29 491.62" stroke="#132e65" stroke-width="1.5"></path><path d="M-98.25 540.19L48.16 655.66" stroke="#132e65" stroke-width="1.5"></path><path d="M-98.25 540.19L52.77 356.67" stroke="#132e65" stroke-width="1.5"></path><path d="M-104.7 646.37L-104.7 646.37" stroke="#132e65" stroke-width="1.5"></path><path d="M-104.7 646.37L48.16 655.66" stroke="#132e65" stroke-width="1.5"></path><path d="M-104.7 646.37L57.29 491.62" stroke="#132e65" stroke-width="1.5"></path><path d="M-104.7 646.37L52.77 356.67" stroke="#132e65" stroke-width="1.5"></path><path d="M-104.7 646.37L259.43 554.83" stroke="#132e65" stroke-width="1.5"></path><path d="M-104.7 646.37L227.42 366.46" stroke="#132e65" stroke-width="1.5"></path><path d="M52.77 356.67L52.77 356.67" stroke="#132e65" stroke-width="1.5"></path><path d="M52.77 356.67L57.29 491.62" stroke="#132e65" stroke-width="1.5"></path><path d="M52.77 356.67L227.42 366.46" stroke="#132e65" stroke-width="1.5"></path><path d="M52.77 356.67L259.43 554.83" stroke="#132e65" stroke-width="1.5"></path><path d="M57.29 491.62L57.29 491.62" stroke="#132e65" stroke-width="1.5"></path><path d="M48.16 655.66L48.16 655.66" stroke="#132e65" stroke-width="1.5"></path><path d="M48.16 655.66L57.29 491.62" stroke="#132e65" stroke-width="1.5"></path><path d="M227.42 366.46L227.42 366.46" stroke="#132e65" stroke-width="1.5"></path><path d="M227.42 366.46L354.1 378.02" stroke="#132e65" stroke-width="1.5"></path><path d="M227.42 366.46L259.43 554.83" stroke="#132e65" stroke-width="1.5"></path><path d="M227.42 366.46L57.29 491.62" stroke="#132e65" stroke-width="1.5"></path><path d="M227.42 366.46L410.88 557.9" stroke="#132e65" stroke-width="1.5"></path><path d="M227.42 366.46L548.3 385.93" stroke="#132e65" stroke-width="1.5"></path><path d="M259.43 554.83L259.43 554.83" stroke="#132e65" stroke-width="1.5"></path><path d="M259.43 554.83L410.88 557.9" stroke="#132e65" stroke-width="1.5"></path><path d="M259.43 554.83L377.21 662.96" stroke="#132e65" stroke-width="1.5"></path><path d="M259.43 554.83L354.1 378.02" stroke="#132e65" stroke-width="1.5"></path><path d="M259.43 554.83L57.29 491.62" stroke="#132e65" stroke-width="1.5"></path><path d="M354.1 378.02L354.1 378.02" stroke="#132e65" stroke-width="1.5"></path><path d="M354.1 378.02L410.88 557.9" stroke="#132e65" stroke-width="1.5"></path><path d="M354.1 378.02L548.3 385.93" stroke="#132e65" stroke-width="1.5"></path><path d="M410.88 557.9L410.88 557.9" stroke="#132e65" stroke-width="1.5"></path><path d="M410.88 557.9L377.21 662.96" stroke="#132e65" stroke-width="1.5"></path><path d="M410.88 557.9L553.8 522.5" stroke="#132e65" stroke-width="1.5"></path><path d="M377.21 662.96L377.21 662.96" stroke="#132e65" stroke-width="1.5"></path><path d="M377.21 662.96L540.48 642.6" stroke="#132e65" stroke-width="1.5"></path><path d="M377.21 662.96L553.8 522.5" stroke="#132e65" stroke-width="1.5"></path><path d="M377.21 662.96L643.66 559.59" stroke="#132e65" stroke-width="1.5"></path><path d="M377.21 662.96L354.1 378.02" stroke="#132e65" stroke-width="1.5"></path><path d="M548.3 385.93L548.3 385.93" stroke="#132e65" stroke-width="1.5"></path><path d="M548.3 385.93L553.8 522.5" stroke="#132e65" stroke-width="1.5"></path><path d="M548.3 385.93L702.33 365.03" stroke="#132e65" stroke-width="1.5"></path><path d="M548.3 385.93L643.66 559.59" stroke="#132e65" stroke-width="1.5"></path><path d="M548.3 385.93L681.76 231.17" stroke="#132e65" stroke-width="1.5"></path><path d="M548.3 385.93L410.88 557.9" stroke="#132e65" stroke-width="1.5"></path><path d="M553.8 522.5L553.8 522.5" stroke="#132e65" stroke-width="1.5"></path><path d="M553.8 522.5L643.66 559.59" stroke="#132e65" stroke-width="1.5"></path><path d="M553.8 522.5L540.48 642.6" stroke="#132e65" stroke-width="1.5"></path><path d="M540.48 642.6L540.48 642.6" stroke="#132e65" stroke-width="1.5"></path><path d="M540.48 642.6L643.66 559.59" stroke="#132e65" stroke-width="1.5"></path><path d="M681.76 231.17L681.76 231.17" stroke="#132e65" stroke-width="1.5"></path><path d="M681.76 231.17L702.33 365.03" stroke="#132e65" stroke-width="1.5"></path><path d="M681.76 231.17L840.59 239.73" stroke="#132e65" stroke-width="1.5"></path><path d="M681.76 231.17L819.37 365.67" stroke="#132e65" stroke-width="1.5"></path><path d="M681.76 231.17L938.69 242.22" stroke="#132e65" stroke-width="1.5"></path><path d="M681.76 231.17L970.63 344.29" stroke="#132e65" stroke-width="1.5"></path><path d="M702.33 365.03L702.33 365.03" stroke="#132e65" stroke-width="1.5"></path><path d="M702.33 365.03L819.37 365.67" stroke="#132e65" stroke-width="1.5"></path><path d="M702.33 365.03L840.59 239.73" stroke="#132e65" stroke-width="1.5"></path><path d="M702.33 365.03L842.74 507.34" stroke="#132e65" stroke-width="1.5"></path><path d="M643.66 559.59L643.66 559.59" stroke="#132e65" stroke-width="1.5"></path><path d="M643.66 559.59L687.21 689.89" stroke="#132e65" stroke-width="1.5"></path><path d="M687.21 689.89L687.21 689.89" stroke="#132e65" stroke-width="1.5"></path><path d="M687.21 689.89L829.11 695.58" stroke="#132e65" stroke-width="1.5"></path><path d="M687.21 689.89L540.48 642.6" stroke="#132e65" stroke-width="1.5"></path><path d="M687.21 689.89L553.8 522.5" stroke="#132e65" stroke-width="1.5"></path><path d="M687.21 689.89L842.74 507.34" stroke="#132e65" stroke-width="1.5"></path><path d="M840.59 239.73L840.59 239.73" stroke="#132e65" stroke-width="1.5"></path><path d="M840.59 239.73L938.69 242.22" stroke="#132e65" stroke-width="1.5"></path><path d="M840.59 239.73L819.37 365.67" stroke="#132e65" stroke-width="1.5"></path><path d="M840.59 239.73L970.63 344.29" stroke="#132e65" stroke-width="1.5"></path><path d="M819.37 365.67L819.37 365.67" stroke="#132e65" stroke-width="1.5"></path><path d="M819.37 365.67L842.74 507.34" stroke="#132e65" stroke-width="1.5"></path><path d="M819.37 365.67L970.63 344.29" stroke="#132e65" stroke-width="1.5"></path><path d="M819.37 365.67L938.69 242.22" stroke="#132e65" stroke-width="1.5"></path><path d="M842.74 507.34L842.74 507.34" stroke="#132e65" stroke-width="1.5"></path><path d="M842.74 507.34L938.7 536.03" stroke="#132e65" stroke-width="1.5"></path><path d="M842.74 507.34L829.11 695.58" stroke="#132e65" stroke-width="1.5"></path><path d="M842.74 507.34L968.35 666.56" stroke="#132e65" stroke-width="1.5"></path><path d="M829.11 695.58L829.11 695.58" stroke="#132e65" stroke-width="1.5"></path><path d="M829.11 695.58L968.35 666.56" stroke="#132e65" stroke-width="1.5"></path><path d="M1011.52 -102.32L1011.52 -102.32" stroke="#132e65" stroke-width="1.5"></path><path d="M1011.52 -102.32L1140.86 -86.97" stroke="#132e65" stroke-width="1.5"></path><path d="M1011.52 -102.32L959.82 41.09" stroke="#132e65" stroke-width="1.5"></path><path d="M1011.52 -102.32L1096.73 44.13" stroke="#132e65" stroke-width="1.5"></path><path d="M1011.52 -102.32L1265.85 67.82" stroke="#132e65" stroke-width="1.5"></path><path d="M1011.52 -102.32L1149.59 206.54" stroke="#132e65" stroke-width="1.5"></path><path d="M1011.52 -102.32L938.69 242.22" stroke="#132e65" stroke-width="1.5"></path><path d="M959.82 41.09L959.82 41.09" stroke="#132e65" stroke-width="1.5"></path><path d="M959.82 41.09L1096.73 44.13" stroke="#132e65" stroke-width="1.5"></path><path d="M959.82 41.09L938.69 242.22" stroke="#132e65" stroke-width="1.5"></path><path d="M959.82 41.09L1140.86 -86.97" stroke="#132e65" stroke-width="1.5"></path><path d="M959.82 41.09L840.59 239.73" stroke="#132e65" stroke-width="1.5"></path><path d="M938.69 242.22L938.69 242.22" stroke="#132e65" stroke-width="1.5"></path><path d="M938.69 242.22L970.63 344.29" stroke="#132e65" stroke-width="1.5"></path><path d="M970.63 344.29L970.63 344.29" stroke="#132e65" stroke-width="1.5"></path><path d="M970.63 344.29L1143.24 365.75" stroke="#132e65" stroke-width="1.5"></path><path d="M970.63 344.29L938.7 536.03" stroke="#132e65" stroke-width="1.5"></path><path d="M970.63 344.29L842.74 507.34" stroke="#132e65" stroke-width="1.5"></path><path d="M938.7 536.03L938.7 536.03" stroke="#132e65" stroke-width="1.5"></path><path d="M938.7 536.03L968.35 666.56" stroke="#132e65" stroke-width="1.5"></path><path d="M938.7 536.03L1120.27 562.31" stroke="#132e65" stroke-width="1.5"></path><path d="M938.7 536.03L829.11 695.58" stroke="#132e65" stroke-width="1.5"></path><path d="M938.7 536.03L819.37 365.67" stroke="#132e65" stroke-width="1.5"></path><path d="M968.35 666.56L968.35 666.56" stroke="#132e65" stroke-width="1.5"></path><path d="M968.35 666.56L1103.71 701.51" stroke="#132e65" stroke-width="1.5"></path><path d="M1140.86 -86.97L1140.86 -86.97" stroke="#132e65" stroke-width="1.5"></path><path d="M1140.86 -86.97L1096.73 44.13" stroke="#132e65" stroke-width="1.5"></path><path d="M1140.86 -86.97L1265.85 67.82" stroke="#132e65" stroke-width="1.5"></path><path d="M1140.86 -86.97L1429.42 -93.73" stroke="#132e65" stroke-width="1.5"></path><path d="M1140.86 -86.97L1149.59 206.54" stroke="#132e65" stroke-width="1.5"></path><path d="M1096.73 44.13L1096.73 44.13" stroke="#132e65" stroke-width="1.5"></path><path d="M1096.73 44.13L1265.85 67.82" stroke="#132e65" stroke-width="1.5"></path><path d="M1096.73 44.13L1149.59 206.54" stroke="#132e65" stroke-width="1.5"></path><path d="M1149.59 206.54L1149.59 206.54" stroke="#132e65" stroke-width="1.5"></path><path d="M1149.59 206.54L1301.53 244.45" stroke="#132e65" stroke-width="1.5"></path><path d="M1149.59 206.54L1143.24 365.75" stroke="#132e65" stroke-width="1.5"></path><path d="M1149.59 206.54L1265.85 67.82" stroke="#132e65" stroke-width="1.5"></path><path d="M1149.59 206.54L938.69 242.22" stroke="#132e65" stroke-width="1.5"></path><path d="M1149.59 206.54L970.63 344.29" stroke="#132e65" stroke-width="1.5"></path><path d="M1143.24 365.75L1143.24 365.75" stroke="#132e65" stroke-width="1.5"></path><path d="M1143.24 365.75L1286.05 392.62" stroke="#132e65" stroke-width="1.5"></path><path d="M1120.27 562.31L1120.27 562.31" stroke="#132e65" stroke-width="1.5"></path><path d="M1120.27 562.31L1103.71 701.51" stroke="#132e65" stroke-width="1.5"></path><path d="M1120.27 562.31L1251.87 489.88" stroke="#132e65" stroke-width="1.5"></path><path d="M1120.27 562.31L1273.78 651.64" stroke="#132e65" stroke-width="1.5"></path><path d="M1103.71 701.51L1103.71 701.51" stroke="#132e65" stroke-width="1.5"></path><path d="M1103.71 701.51L1273.78 651.64" stroke="#132e65" stroke-width="1.5"></path><path d="M1103.71 701.51L938.7 536.03" stroke="#132e65" stroke-width="1.5"></path><path d="M1103.71 701.51L1251.87 489.88" stroke="#132e65" stroke-width="1.5"></path><path d="M1265.85 67.82L1265.85 67.82" stroke="#132e65" stroke-width="1.5"></path><path d="M1265.85 67.82L1441.35 62.38" stroke="#132e65" stroke-width="1.5"></path><path d="M1301.53 244.45L1301.53 244.45" stroke="#132e65" stroke-width="1.5"></path><path d="M1301.53 244.45L1286.05 392.62" stroke="#132e65" stroke-width="1.5"></path><path d="M1301.53 244.45L1441.53 191.5" stroke="#132e65" stroke-width="1.5"></path><path d="M1301.53 244.45L1265.85 67.82" stroke="#132e65" stroke-width="1.5"></path><path d="M1301.53 244.45L1410.46 401.42" stroke="#132e65" stroke-width="1.5"></path><path d="M1301.53 244.45L1143.24 365.75" stroke="#132e65" stroke-width="1.5"></path><path d="M1286.05 392.62L1286.05 392.62" stroke="#132e65" stroke-width="1.5"></path><path d="M1286.05 392.62L1251.87 489.88" stroke="#132e65" stroke-width="1.5"></path><path d="M1286.05 392.62L1410.46 401.42" stroke="#132e65" stroke-width="1.5"></path><path d="M1251.87 489.88L1251.87 489.88" stroke="#132e65" stroke-width="1.5"></path><path d="M1251.87 489.88L1273.78 651.64" stroke="#132e65" stroke-width="1.5"></path><path d="M1251.87 489.88L1143.24 365.75" stroke="#132e65" stroke-width="1.5"></path><path d="M1251.87 489.88L1419.97 535.88" stroke="#132e65" stroke-width="1.5"></path><path d="M1273.78 651.64L1273.78 651.64" stroke="#132e65" stroke-width="1.5"></path><path d="M1273.78 651.64L1411.31 705.16" stroke="#132e65" stroke-width="1.5"></path><path d="M1429.42 -93.73L1429.42 -93.73" stroke="#132e65" stroke-width="1.5"></path><path d="M1429.42 -93.73L1441.35 62.38" stroke="#132e65" stroke-width="1.5"></path><path d="M1429.42 -93.73L1612.33 -112.14" stroke="#132e65" stroke-width="1.5"></path><path d="M1429.42 -93.73L1571.33 78.72" stroke="#132e65" stroke-width="1.5"></path><path d="M1441.35 62.38L1441.35 62.38" stroke="#132e65" stroke-width="1.5"></path><path d="M1441.35 62.38L1441.53 191.5" stroke="#132e65" stroke-width="1.5"></path><path d="M1441.35 62.38L1571.33 78.72" stroke="#132e65" stroke-width="1.5"></path><path d="M1441.53 191.5L1441.53 191.5" stroke="#132e65" stroke-width="1.5"></path><path d="M1441.53 191.5L1559.21 213.51" stroke="#132e65" stroke-width="1.5"></path><path d="M1441.53 191.5L1571.33 78.72" stroke="#132e65" stroke-width="1.5"></path><path d="M1410.46 401.42L1410.46 401.42" stroke="#132e65" stroke-width="1.5"></path><path d="M1410.46 401.42L1419.97 535.88" stroke="#132e65" stroke-width="1.5"></path><path d="M1410.46 401.42L1251.87 489.88" stroke="#132e65" stroke-width="1.5"></path><path d="M1410.46 401.42L1573.99 517.16" stroke="#132e65" stroke-width="1.5"></path><path d="M1410.46 401.42L1610.19 346.6" stroke="#132e65" stroke-width="1.5"></path><path d="M1419.97 535.88L1419.97 535.88" stroke="#132e65" stroke-width="1.5"></path><path d="M1419.97 535.88L1573.99 517.16" stroke="#132e65" stroke-width="1.5"></path><path d="M1419.97 535.88L1411.31 705.16" stroke="#132e65" stroke-width="1.5"></path><path d="M1419.97 535.88L1273.78 651.64" stroke="#132e65" stroke-width="1.5"></path><path d="M1419.97 535.88L1286.05 392.62" stroke="#132e65" stroke-width="1.5"></path><path d="M1411.31 705.16L1411.31 705.16" stroke="#132e65" stroke-width="1.5"></path><path d="M1411.31 705.16L1562.77 699.97" stroke="#132e65" stroke-width="1.5"></path><path d="M1612.33 -112.14L1612.33 -112.14" stroke="#132e65" stroke-width="1.5"></path><path d="M1612.33 -112.14L1571.33 78.72" stroke="#132e65" stroke-width="1.5"></path><path d="M1612.33 -112.14L1441.35 62.38" stroke="#132e65" stroke-width="1.5"></path><path d="M1612.33 -112.14L1559.21 213.51" stroke="#132e65" stroke-width="1.5"></path><path d="M1612.33 -112.14L1441.53 191.5" stroke="#132e65" stroke-width="1.5"></path><path d="M1612.33 -112.14L1265.85 67.82" stroke="#132e65" stroke-width="1.5"></path><path d="M1571.33 78.72L1571.33 78.72" stroke="#132e65" stroke-width="1.5"></path><path d="M1571.33 78.72L1559.21 213.51" stroke="#132e65" stroke-width="1.5"></path><path d="M1559.21 213.51L1559.21 213.51" stroke="#132e65" stroke-width="1.5"></path><path d="M1610.19 346.6L1610.19 346.6" stroke="#132e65" stroke-width="1.5"></path><path d="M1610.19 346.6L1559.21 213.51" stroke="#132e65" stroke-width="1.5"></path><path d="M1573.99 517.16L1573.99 517.16" stroke="#132e65" stroke-width="1.5"></path><path d="M1573.99 517.16L1610.19 346.6" stroke="#132e65" stroke-width="1.5"></path><path d="M1562.77 699.97L1562.77 699.97" stroke="#132e65" stroke-width="1.5"></path><path d="M1562.77 699.97L1573.99 517.16" stroke="#132e65" stroke-width="1.5"></path><path d="M1562.77 699.97L1419.97 535.88" stroke="#132e65" stroke-width="1.5"></path><circle r="5" cx="-98.25" cy="540.19" fill="#132e65"></circle><circle r="5" cx="-104.7" cy="646.37" fill="#132e65"></circle><circle r="5" cx="52.77" cy="356.67" fill="#132e65"></circle><circle r="5" cx="57.29" cy="491.62" fill="#132e65"></circle><circle r="5" cx="48.16" cy="655.66" fill="#132e65"></circle><circle r="5" cx="227.42" cy="366.46" fill="#132e65"></circle><circle r="5" cx="259.43" cy="554.83" fill="#132e65"></circle><circle r="5" cx="354.1" cy="378.02" fill="#132e65"></circle><circle r="5" cx="410.88" cy="557.9" fill="#132e65"></circle><circle r="5" cx="377.21" cy="662.96" fill="#132e65"></circle><circle r="5" cx="548.3" cy="385.93" fill="#132e65"></circle><circle r="5" cx="553.8" cy="522.5" fill="#132e65"></circle><circle r="5" cx="540.48" cy="642.6" fill="#132e65"></circle><circle r="5" cx="681.76" cy="231.17" fill="#132e65"></circle><circle r="5" cx="702.33" cy="365.03" fill="#132e65"></circle><circle r="5" cx="643.66" cy="559.59" fill="#132e65"></circle><circle r="5" cx="687.21" cy="689.89" fill="#132e65"></circle><circle r="5" cx="840.59" cy="239.73" fill="#132e65"></circle><circle r="5" cx="819.37" cy="365.67" fill="#132e65"></circle><circle r="5" cx="842.74" cy="507.34" fill="#132e65"></circle><circle r="5" cx="829.11" cy="695.58" fill="#132e65"></circle><circle r="5" cx="1011.52" cy="-102.32" fill="#132e65"></circle><circle r="5" cx="959.82" cy="41.09" fill="#132e65"></circle><circle r="5" cx="938.69" cy="242.22" fill="#132e65"></circle><circle r="5" cx="970.63" cy="344.29" fill="#132e65"></circle><circle r="5" cx="938.7" cy="536.03" fill="#132e65"></circle><circle r="5" cx="968.35" cy="666.56" fill="#132e65"></circle><circle r="5" cx="1140.86" cy="-86.97" fill="#132e65"></circle><circle r="5" cx="1096.73" cy="44.13" fill="#132e65"></circle><circle r="5" cx="1149.59" cy="206.54" fill="#132e65"></circle><circle r="5" cx="1143.24" cy="365.75" fill="#132e65"></circle><circle r="5" cx="1120.27" cy="562.31" fill="#132e65"></circle><circle r="5" cx="1103.71" cy="701.51" fill="#132e65"></circle><circle r="5" cx="1265.85" cy="67.82" fill="#132e65"></circle><circle r="5" cx="1301.53" cy="244.45" fill="#132e65"></circle><circle r="5" cx="1286.05" cy="392.62" fill="#132e65"></circle><circle r="5" cx="1251.87" cy="489.88" fill="#132e65"></circle><circle r="5" cx="1273.78" cy="651.64" fill="#132e65"></circle><circle r="5" cx="1429.42" cy="-93.73" fill="#132e65"></circle><circle r="5" cx="1441.35" cy="62.38" fill="#132e65"></circle><circle r="5" cx="1441.53" cy="191.5" fill="#132e65"></circle><circle r="5" cx="1410.46" cy="401.42" fill="#132e65"></circle><circle r="5" cx="1419.97" cy="535.88" fill="#132e65"></circle><circle r="5" cx="1411.31" cy="705.16" fill="#132e65"></circle><circle r="5" cx="1612.33" cy="-112.14" fill="#132e65"></circle><circle r="5" cx="1571.33" cy="78.72" fill="#132e65"></circle><circle r="5" cx="1559.21" cy="213.51" fill="#132e65"></circle><circle r="5" cx="1610.19" cy="346.6" fill="#132e65"></circle><circle r="5" cx="1573.99" cy="517.16" fill="#132e65"></circle><circle r="5" cx="1562.77" cy="699.97" fill="#132e65"></circle><path d="M-62.08 526.46L-62.08 526.46" stroke="hsl(228.5, 77.2%, 51.5%)" stroke-width="1.5"></path><path d="M-62.08 526.46L82.52 549.2" stroke="hsl(228.5, 77.2%, 51.5%)" stroke-width="1.5"></path><path d="M-62.08 526.46L-79.15 690.3" stroke="hsl(228.5, 77.2%, 51.5%)" stroke-width="1.5"></path><path d="M-62.08 526.46L259.04 488.81" stroke="hsl(228.5, 77.2%, 51.5%)" stroke-width="1.5"></path><path d="M-62.08 526.46L240.94 705.08" stroke="hsl(228.5, 77.2%, 51.5%)" stroke-width="1.5"></path><path d="M-62.08 526.46L371.37 561.19" stroke="hsl(228.5, 77.2%, 51.5%)" stroke-width="1.5"></path><path d="M-62.08 526.46L387.97 677.47" stroke="hsl(228.5, 77.2%, 51.5%)" stroke-width="1.5"></path><path d="M-79.15 690.3L-79.15 690.3" stroke="hsl(228.5, 77.2%, 51.5%)" stroke-width="1.5"></path><path d="M-79.15 690.3L82.52 549.2" stroke="hsl(228.5, 77.2%, 51.5%)" stroke-width="1.5"></path><path d="M-79.15 690.3L240.94 705.08" stroke="hsl(228.5, 77.2%, 51.5%)" stroke-width="1.5"></path><path d="M-79.15 690.3L259.04 488.81" stroke="hsl(228.5, 77.2%, 51.5%)" stroke-width="1.5"></path><path d="M851.38 700.43L851.38 700.43" stroke="hsl(228.5, 77.2%, 51.5%)" stroke-width="1.5"></path><path d="M851.38 700.43L966.66 642.72" stroke="hsl(228.5, 77.2%, 51.5%)" stroke-width="1.5"></path><path d="M851.38 700.43L805.14 515.54" stroke="hsl(228.5, 77.2%, 51.5%)" stroke-width="1.5"></path><path d="M851.38 700.43L656.95 664.61" stroke="hsl(228.5, 77.2%, 51.5%)" stroke-width="1.5"></path><path d="M966.66 642.72L966.66 642.72" stroke="hsl(228.5, 77.2%, 51.5%)" stroke-width="1.5"></path><path d="M966.66 642.72L1004.05 524.23" stroke="hsl(228.5, 77.2%, 51.5%)" stroke-width="1.5"></path><path d="M966.66 642.72L1103.07 537.49" stroke="hsl(228.5, 77.2%, 51.5%)" stroke-width="1.5"></path><path d="M966.66 642.72L1149.5 672.85" stroke="hsl(228.5, 77.2%, 51.5%)" stroke-width="1.5"></path><path d="M966.66 642.72L805.14 515.54" stroke="hsl(228.5, 77.2%, 51.5%)" stroke-width="1.5"></path><path d="M966.66 642.72L1002.7 368.25" stroke="hsl(228.5, 77.2%, 51.5%)" stroke-width="1.5"></path><path d="M1264.91 -66.76L1264.91 -66.76" stroke="hsl(228.5, 77.2%, 51.5%)" stroke-width="1.5"></path><path d="M1264.91 -66.76L1245.92 37.68" stroke="hsl(228.5, 77.2%, 51.5%)" stroke-width="1.5"></path><path d="M1264.91 -66.76L1415.56 -62.06" stroke="hsl(228.5, 77.2%, 51.5%)" stroke-width="1.5"></path><path d="M1264.91 -66.76L1399.64 74.12" stroke="hsl(228.5, 77.2%, 51.5%)" stroke-width="1.5"></path><path d="M1264.91 -66.76L1303.13 193.35" stroke="hsl(228.5, 77.2%, 51.5%)" stroke-width="1.5"></path><path d="M1264.91 -66.76L1119.46 204.08" stroke="hsl(228.5, 77.2%, 51.5%)" stroke-width="1.5"></path><path d="M1572.12 -84.14L1572.12 -84.14" stroke="hsl(228.5, 77.2%, 51.5%)" stroke-width="1.5"></path><path d="M1572.12 -84.14L1582.06 40.33" stroke="hsl(228.5, 77.2%, 51.5%)" stroke-width="1.5"></path><path d="M1572.12 -84.14L1415.56 -62.06" stroke="hsl(228.5, 77.2%, 51.5%)" stroke-width="1.5"></path><path d="M1572.12 -84.14L1399.64 74.12" stroke="hsl(228.5, 77.2%, 51.5%)" stroke-width="1.5"></path><path d="M1572.12 -84.14L1264.91 -66.76" stroke="hsl(228.5, 77.2%, 51.5%)" stroke-width="1.5"></path><path d="M1572.12 -84.14L1451.71 221.25" stroke="hsl(228.5, 77.2%, 51.5%)" stroke-width="1.5"></path><path d="M1565.19 707.83L1565.19 707.83" stroke="hsl(228.5, 77.2%, 51.5%)" stroke-width="1.5"></path><path d="M1565.19 707.83L1457.87 639.83" stroke="hsl(228.5, 77.2%, 51.5%)" stroke-width="1.5"></path><path d="M1565.19 707.83L1538.83 549.13" stroke="hsl(228.5, 77.2%, 51.5%)" stroke-width="1.5"></path><path d="M1565.19 707.83L1433.52 528.61" stroke="hsl(228.5, 77.2%, 51.5%)" stroke-width="1.5"></path><path d="M1565.19 707.83L1253.71 663.44" stroke="hsl(228.5, 77.2%, 51.5%)" stroke-width="1.5"></path><path d="M1565.19 707.83L1285.49 518.16" stroke="hsl(228.5, 77.2%, 51.5%)" stroke-width="1.5"></path><path d="M82.52 549.2L82.52 549.2" stroke="hsl(228.5, 77.2%, 51.5%)" stroke-width="1.5"></path><path d="M82.52 549.2L259.04 488.81" stroke="hsl(228.5, 77.2%, 51.5%)" stroke-width="1.5"></path><path d="M259.04 488.81L259.04 488.81" stroke="hsl(228.5, 77.2%, 51.5%)" stroke-width="1.5"></path><path d="M259.04 488.81L371.37 561.19" stroke="hsl(228.5, 77.2%, 51.5%)" stroke-width="1.5"></path><path d="M259.04 488.81L240.94 705.08" stroke="hsl(228.5, 77.2%, 51.5%)" stroke-width="1.5"></path><path d="M240.94 705.08L240.94 705.08" stroke="hsl(228.5, 77.2%, 51.5%)" stroke-width="1.5"></path><path d="M240.94 705.08L387.97 677.47" stroke="hsl(228.5, 77.2%, 51.5%)" stroke-width="1.5"></path><path d="M240.94 705.08L371.37 561.19" stroke="hsl(228.5, 77.2%, 51.5%)" stroke-width="1.5"></path><path d="M240.94 705.08L82.52 549.2" stroke="hsl(228.5, 77.2%, 51.5%)" stroke-width="1.5"></path><path d="M240.94 705.08L552.54 657.25" stroke="hsl(228.5, 77.2%, 51.5%)" stroke-width="1.5"></path><path d="M371.37 561.19L371.37 561.19" stroke="hsl(228.5, 77.2%, 51.5%)" stroke-width="1.5"></path><path d="M371.37 561.19L387.97 677.47" stroke="hsl(228.5, 77.2%, 51.5%)" stroke-width="1.5"></path><path d="M371.37 561.19L533 516.19" stroke="hsl(228.5, 77.2%, 51.5%)" stroke-width="1.5"></path><path d="M387.97 677.47L387.97 677.47" stroke="hsl(228.5, 77.2%, 51.5%)" stroke-width="1.5"></path><path d="M387.97 677.47L552.54 657.25" stroke="hsl(228.5, 77.2%, 51.5%)" stroke-width="1.5"></path><path d="M387.97 677.47L533 516.19" stroke="hsl(228.5, 77.2%, 51.5%)" stroke-width="1.5"></path><path d="M387.97 677.47L259.04 488.81" stroke="hsl(228.5, 77.2%, 51.5%)" stroke-width="1.5"></path><path d="M533 516.19L533 516.19" stroke="hsl(228.5, 77.2%, 51.5%)" stroke-width="1.5"></path><path d="M533 516.19L670.02 542.95" stroke="hsl(228.5, 77.2%, 51.5%)" stroke-width="1.5"></path><path d="M533 516.19L552.54 657.25" stroke="hsl(228.5, 77.2%, 51.5%)" stroke-width="1.5"></path><path d="M533 516.19L680.88 407.79" stroke="hsl(228.5, 77.2%, 51.5%)" stroke-width="1.5"></path><path d="M533 516.19L656.95 664.61" stroke="hsl(228.5, 77.2%, 51.5%)" stroke-width="1.5"></path><path d="M552.54 657.25L552.54 657.25" stroke="hsl(228.5, 77.2%, 51.5%)" stroke-width="1.5"></path><path d="M552.54 657.25L656.95 664.61" stroke="hsl(228.5, 77.2%, 51.5%)" stroke-width="1.5"></path><path d="M680.88 407.79L680.88 407.79" stroke="hsl(228.5, 77.2%, 51.5%)" stroke-width="1.5"></path><path d="M680.88 407.79L670.02 542.95" stroke="hsl(228.5, 77.2%, 51.5%)" stroke-width="1.5"></path><path d="M680.88 407.79L824.32 396.81" stroke="hsl(228.5, 77.2%, 51.5%)" stroke-width="1.5"></path><path d="M680.88 407.79L805.14 515.54" stroke="hsl(228.5, 77.2%, 51.5%)" stroke-width="1.5"></path><path d="M670.02 542.95L670.02 542.95" stroke="hsl(228.5, 77.2%, 51.5%)" stroke-width="1.5"></path><path d="M670.02 542.95L656.95 664.61" stroke="hsl(228.5, 77.2%, 51.5%)" stroke-width="1.5"></path><path d="M670.02 542.95L805.14 515.54" stroke="hsl(228.5, 77.2%, 51.5%)" stroke-width="1.5"></path><path d="M656.95 664.61L656.95 664.61" stroke="hsl(228.5, 77.2%, 51.5%)" stroke-width="1.5"></path><path d="M824.32 396.81L824.32 396.81" stroke="hsl(228.5, 77.2%, 51.5%)" stroke-width="1.5"></path><path d="M824.32 396.81L805.14 515.54" stroke="hsl(228.5, 77.2%, 51.5%)" stroke-width="1.5"></path><path d="M805.14 515.54L805.14 515.54" stroke="hsl(228.5, 77.2%, 51.5%)" stroke-width="1.5"></path><path d="M1010.21 224.93L1010.21 224.93" stroke="hsl(228.5, 77.2%, 51.5%)" stroke-width="1.5"></path><path d="M1010.21 224.93L1119.46 204.08" stroke="hsl(228.5, 77.2%, 51.5%)" stroke-width="1.5"></path><path d="M1010.21 224.93L1002.7 368.25" stroke="hsl(228.5, 77.2%, 51.5%)" stroke-width="1.5"></path><path d="M1010.21 224.93L1157.54 346" stroke="hsl(228.5, 77.2%, 51.5%)" stroke-width="1.5"></path><path d="M1010.21 224.93L824.32 396.81" stroke="hsl(228.5, 77.2%, 51.5%)" stroke-width="1.5"></path><path d="M1002.7 368.25L1002.7 368.25" stroke="hsl(228.5, 77.2%, 51.5%)" stroke-width="1.5"></path><path d="M1002.7 368.25L1004.05 524.23" stroke="hsl(228.5, 77.2%, 51.5%)" stroke-width="1.5"></path><path d="M1002.7 368.25L1157.54 346" stroke="hsl(228.5, 77.2%, 51.5%)" stroke-width="1.5"></path><path d="M1004.05 524.23L1004.05 524.23" stroke="hsl(228.5, 77.2%, 51.5%)" stroke-width="1.5"></path><path d="M1004.05 524.23L1103.07 537.49" stroke="hsl(228.5, 77.2%, 51.5%)" stroke-width="1.5"></path><path d="M1004.05 524.23L805.14 515.54" stroke="hsl(228.5, 77.2%, 51.5%)" stroke-width="1.5"></path><path d="M1004.05 524.23L1149.5 672.85" stroke="hsl(228.5, 77.2%, 51.5%)" stroke-width="1.5"></path><path d="M1119.46 204.08L1119.46 204.08" stroke="hsl(228.5, 77.2%, 51.5%)" stroke-width="1.5"></path><path d="M1119.46 204.08L1157.54 346" stroke="hsl(228.5, 77.2%, 51.5%)" stroke-width="1.5"></path><path d="M1157.54 346L1157.54 346" stroke="hsl(228.5, 77.2%, 51.5%)" stroke-width="1.5"></path><path d="M1157.54 346L1255.77 394.64" stroke="hsl(228.5, 77.2%, 51.5%)" stroke-width="1.5"></path><path d="M1103.07 537.49L1103.07 537.49" stroke="hsl(228.5, 77.2%, 51.5%)" stroke-width="1.5"></path><path d="M1103.07 537.49L1149.5 672.85" stroke="hsl(228.5, 77.2%, 51.5%)" stroke-width="1.5"></path><path d="M1149.5 672.85L1149.5 672.85" stroke="hsl(228.5, 77.2%, 51.5%)" stroke-width="1.5"></path><path d="M1149.5 672.85L1253.71 663.44" stroke="hsl(228.5, 77.2%, 51.5%)" stroke-width="1.5"></path><path d="M1245.92 37.68L1245.92 37.68" stroke="hsl(228.5, 77.2%, 51.5%)" stroke-width="1.5"></path><path d="M1245.92 37.68L1399.64 74.12" stroke="hsl(228.5, 77.2%, 51.5%)" stroke-width="1.5"></path><path d="M1303.13 193.35L1303.13 193.35" stroke="hsl(228.5, 77.2%, 51.5%)" stroke-width="1.5"></path><path d="M1303.13 193.35L1451.71 221.25" stroke="hsl(228.5, 77.2%, 51.5%)" stroke-width="1.5"></path><path d="M1303.13 193.35L1399.64 74.12" stroke="hsl(228.5, 77.2%, 51.5%)" stroke-width="1.5"></path><path d="M1255.77 394.64L1255.77 394.64" stroke="hsl(228.5, 77.2%, 51.5%)" stroke-width="1.5"></path><path d="M1255.77 394.64L1285.49 518.16" stroke="hsl(228.5, 77.2%, 51.5%)" stroke-width="1.5"></path><path d="M1255.77 394.64L1417.59 379.35" stroke="hsl(228.5, 77.2%, 51.5%)" stroke-width="1.5"></path><path d="M1285.49 518.16L1285.49 518.16" stroke="hsl(228.5, 77.2%, 51.5%)" stroke-width="1.5"></path><path d="M1285.49 518.16L1433.52 528.61" stroke="hsl(228.5, 77.2%, 51.5%)" stroke-width="1.5"></path><path d="M1253.71 663.44L1253.71 663.44" stroke="hsl(228.5, 77.2%, 51.5%)" stroke-width="1.5"></path><path d="M1253.71 663.44L1285.49 518.16" stroke="hsl(228.5, 77.2%, 51.5%)" stroke-width="1.5"></path><path d="M1415.56 -62.06L1415.56 -62.06" stroke="hsl(228.5, 77.2%, 51.5%)" stroke-width="1.5"></path><path d="M1415.56 -62.06L1399.64 74.12" stroke="hsl(228.5, 77.2%, 51.5%)" stroke-width="1.5"></path><path d="M1399.64 74.12L1399.64 74.12" stroke="hsl(228.5, 77.2%, 51.5%)" stroke-width="1.5"></path><path d="M1399.64 74.12L1451.71 221.25" stroke="hsl(228.5, 77.2%, 51.5%)" stroke-width="1.5"></path><path d="M1451.71 221.25L1451.71 221.25" stroke="hsl(228.5, 77.2%, 51.5%)" stroke-width="1.5"></path><path d="M1451.71 221.25L1417.59 379.35" stroke="hsl(228.5, 77.2%, 51.5%)" stroke-width="1.5"></path><path d="M1451.71 221.25L1601.06 363.63" stroke="hsl(228.5, 77.2%, 51.5%)" stroke-width="1.5"></path><path d="M1451.71 221.25L1582.06 40.33" stroke="hsl(228.5, 77.2%, 51.5%)" stroke-width="1.5"></path><path d="M1417.59 379.35L1417.59 379.35" stroke="hsl(228.5, 77.2%, 51.5%)" stroke-width="1.5"></path><path d="M1417.59 379.35L1433.52 528.61" stroke="hsl(228.5, 77.2%, 51.5%)" stroke-width="1.5"></path><path d="M1433.52 528.61L1433.52 528.61" stroke="hsl(228.5, 77.2%, 51.5%)" stroke-width="1.5"></path><path d="M1433.52 528.61L1538.83 549.13" stroke="hsl(228.5, 77.2%, 51.5%)" stroke-width="1.5"></path><path d="M1433.52 528.61L1457.87 639.83" stroke="hsl(228.5, 77.2%, 51.5%)" stroke-width="1.5"></path><path d="M1457.87 639.83L1457.87 639.83" stroke="hsl(228.5, 77.2%, 51.5%)" stroke-width="1.5"></path><path d="M1457.87 639.83L1538.83 549.13" stroke="hsl(228.5, 77.2%, 51.5%)" stroke-width="1.5"></path><path d="M1457.87 639.83L1253.71 663.44" stroke="hsl(228.5, 77.2%, 51.5%)" stroke-width="1.5"></path><path d="M1457.87 639.83L1285.49 518.16" stroke="hsl(228.5, 77.2%, 51.5%)" stroke-width="1.5"></path><path d="M1457.87 639.83L1417.59 379.35" stroke="hsl(228.5, 77.2%, 51.5%)" stroke-width="1.5"></path><path d="M1582.06 40.33L1582.06 40.33" stroke="hsl(228.5, 77.2%, 51.5%)" stroke-width="1.5"></path><path d="M1582.06 40.33L1399.64 74.12" stroke="hsl(228.5, 77.2%, 51.5%)" stroke-width="1.5"></path><path d="M1582.06 40.33L1415.56 -62.06" stroke="hsl(228.5, 77.2%, 51.5%)" stroke-width="1.5"></path><path d="M1582.06 40.33L1303.13 193.35" stroke="hsl(228.5, 77.2%, 51.5%)" stroke-width="1.5"></path><path d="M1582.06 40.33L1601.06 363.63" stroke="hsl(228.5, 77.2%, 51.5%)" stroke-width="1.5"></path><path d="M1601.06 363.63L1601.06 363.63" stroke="hsl(228.5, 77.2%, 51.5%)" stroke-width="1.5"></path><path d="M1601.06 363.63L1417.59 379.35" stroke="hsl(228.5, 77.2%, 51.5%)" stroke-width="1.5"></path><path d="M1601.06 363.63L1538.83 549.13" stroke="hsl(228.5, 77.2%, 51.5%)" stroke-width="1.5"></path><path d="M1601.06 363.63L1433.52 528.61" stroke="hsl(228.5, 77.2%, 51.5%)" stroke-width="1.5"></path><path d="M1601.06 363.63L1457.87 639.83" stroke="hsl(228.5, 77.2%, 51.5%)" stroke-width="1.5"></path><path d="M1538.83 549.13L1538.83 549.13" stroke="hsl(228.5, 77.2%, 51.5%)" stroke-width="1.5"></path><circle r="25" cx="-62.08" cy="526.46" fill="url(&quot;#SvgjsRadialGradient1003&quot;)"></circle><circle r="25" cx="-79.15" cy="690.3" fill="url(&quot;#SvgjsRadialGradient1003&quot;)"></circle><circle r="25" cx="851.38" cy="700.43" fill="url(&quot;#SvgjsRadialGradient1003&quot;)"></circle><circle r="25" cx="966.66" cy="642.72" fill="url(&quot;#SvgjsRadialGradient1003&quot;)"></circle><circle r="25" cx="1264.91" cy="-66.76" fill="url(&quot;#SvgjsRadialGradient1003&quot;)"></circle><circle r="25" cx="1572.12" cy="-84.14" fill="url(&quot;#SvgjsRadialGradient1003&quot;)"></circle><circle r="25" cx="1565.19" cy="707.83" fill="url(&quot;#SvgjsRadialGradient1003&quot;)"></circle><circle r="5" cx="82.52" cy="549.2" fill="#8b9ad9"></circle><circle r="5" cx="259.04" cy="488.81" fill="#8b9ad9"></circle><circle r="5" cx="240.94" cy="705.08" fill="#8b9ad9"></circle><circle r="5" cx="371.37" cy="561.19" fill="#8b9ad9"></circle><circle r="5" cx="387.97" cy="677.47" fill="#8b9ad9"></circle><circle r="5" cx="533" cy="516.19" fill="#8b9ad9"></circle><circle r="5" cx="552.54" cy="657.25" fill="#8b9ad9"></circle><circle r="5" cx="680.88" cy="407.79" fill="#8b9ad9"></circle><circle r="5" cx="670.02" cy="542.95" fill="#8b9ad9"></circle><circle r="5" cx="656.95" cy="664.61" fill="#8b9ad9"></circle><circle r="5" cx="824.32" cy="396.81" fill="#8b9ad9"></circle><circle r="5" cx="805.14" cy="515.54" fill="#8b9ad9"></circle><circle r="5" cx="1010.21" cy="224.93" fill="#8b9ad9"></circle><circle r="5" cx="1002.7" cy="368.25" fill="#8b9ad9"></circle><circle r="5" cx="1004.05" cy="524.23" fill="#8b9ad9"></circle><circle r="5" cx="1119.46" cy="204.08" fill="#8b9ad9"></circle><circle r="5" cx="1157.54" cy="346" fill="#8b9ad9"></circle><circle r="5" cx="1103.07" cy="537.49" fill="#8b9ad9"></circle><circle r="5" cx="1149.5" cy="672.85" fill="#8b9ad9"></circle><circle r="5" cx="1245.92" cy="37.68" fill="#8b9ad9"></circle><circle r="5" cx="1303.13" cy="193.35" fill="#8b9ad9"></circle><circle r="5" cx="1255.77" cy="394.64" fill="#8b9ad9"></circle><circle r="5" cx="1285.49" cy="518.16" fill="#8b9ad9"></circle><circle r="5" cx="1253.71" cy="663.44" fill="#8b9ad9"></circle><circle r="5" cx="1415.56" cy="-62.06" fill="#8b9ad9"></circle><circle r="5" cx="1399.64" cy="74.12" fill="#8b9ad9"></circle><circle r="5" cx="1451.71" cy="221.25" fill="#8b9ad9"></circle><circle r="5" cx="1417.59" cy="379.35" fill="#8b9ad9"></circle><circle r="5" cx="1433.52" cy="528.61" fill="#8b9ad9"></circle><circle r="5" cx="1457.87" cy="639.83" fill="#8b9ad9"></circle><circle r="5" cx="1582.06" cy="40.33" fill="#8b9ad9"></circle><circle r="5" cx="1601.06" cy="363.63" fill="#8b9ad9"></circle><circle r="5" cx="1538.83" cy="549.13" fill="#8b9ad9"></circle></g><defs><mask id="SvgjsMask1002"><rect width="1440" height="560" fill="#ffffff"></rect></mask><radialGradient id="SvgjsRadialGradient1003"><stop stop-color="#ffffff" offset="0.1"></stop><stop stop-color="#1735b3" offset="0.2"></stop><stop stop-color="rgba(23, 53, 179, 0)" offset="1"></stop></radialGradient></defs></svg>