<svg xmlns="http://www.w3.org/2000/svg" version="1.1" xmlns:xlink="http://www.w3.org/1999/xlink" xmlns:svgjs="http://svgjs.dev/svgjs" width="1440" height="560" preserveAspectRatio="none" viewBox="0 0 1440 560"><g mask="url(&quot;#SvgjsMask1300&quot;)" fill="none"><g mask="url(&quot;#SvgjsMask1301&quot;)"><path d="M273 273L315 273M315 231L357 189L399 147M105 273L147 315L189 357M-21 273L21 273L63 273L105 273L147 273L189 273L231 273L273 273L315 231L357 231L399 231" stroke="rgba(74, 123, 190, 1)" stroke-width="7"></path><path d="M388.5 231 a10.5 10.5 0 1 0 21 0 a10.5 10.5 0 1 0 -21 0zM304.5 273 a10.5 10.5 0 1 0 21 0 a10.5 10.5 0 1 0 -21 0zM388.5 147 a10.5 10.5 0 1 0 21 0 a10.5 10.5 0 1 0 -21 0zM178.5 357 a10.5 10.5 0 1 0 21 0 a10.5 10.5 0 1 0 -21 0z" fill="rgba(74, 123, 190, 1)"></path><path d="M-21 315L21 315" stroke="rgba(74, 123, 190, 1)" stroke-width="7"></path><path d="M10.5 315 a10.5 10.5 0 1 0 21 0 a10.5 10.5 0 1 0 -21 0z" fill="rgba(74, 123, 190, 1)"></path><path d="M21 231L63 189L105 189L147 189M-21 231L21 231L63 231" stroke="rgba(74, 123, 190, 1)" stroke-width="7"></path><path d="M52.5 231 a10.5 10.5 0 1 0 21 0 a10.5 10.5 0 1 0 -21 0zM136.5 189 a10.5 10.5 0 1 0 21 0 a10.5 10.5 0 1 0 -21 0z" fill="rgba(74, 123, 190, 1)"></path><path d="M-21 357L21 357L63 357" stroke="rgba(74, 123, 190, 1)" stroke-width="7"></path><path d="M52.5 357 a10.5 10.5 0 1 0 21 0 a10.5 10.5 0 1 0 -21 0z" fill="rgba(74, 123, 190, 1)"></path><path d="M231 399L273 441L315 441M189 399L231 441L273 483L315 483L357 483M105 357L147 399L189 441L231 483M-21 399L21 399L63 399L105 357L147 357L189 399L231 399L273 399L315 399" stroke="rgba(74, 123, 190, 1)" stroke-width="7"></path><path d="M304.5 399 a10.5 10.5 0 1 0 21 0 a10.5 10.5 0 1 0 -21 0zM304.5 441 a10.5 10.5 0 1 0 21 0 a10.5 10.5 0 1 0 -21 0zM346.5 483 a10.5 10.5 0 1 0 21 0 a10.5 10.5 0 1 0 -21 0zM220.5 483 a10.5 10.5 0 1 0 21 0 a10.5 10.5 0 1 0 -21 0z" fill="rgba(74, 123, 190, 1)"></path><path d="M21 147L63 105L105 105L147 105M-21 147L21 147L63 147L105 147" stroke="rgba(74, 123, 190, 1)" stroke-width="7"></path><path d="M94.5 147 a10.5 10.5 0 1 0 21 0 a10.5 10.5 0 1 0 -21 0zM136.5 105 a10.5 10.5 0 1 0 21 0 a10.5 10.5 0 1 0 -21 0z" fill="rgba(74, 123, 190, 1)"></path></g></g><defs><mask id="SvgjsMask1300"><rect width="1440" height="560" fill="#ffffff"></rect></mask><mask id="SvgjsMask1301"><rect width="1440" height="560" fill="white"></rect><path d="M393.75 231 a5.25 5.25 0 1 0 10.5 0 a5.25 5.25 0 1 0 -10.5 0zM309.75 273 a5.25 5.25 0 1 0 10.5 0 a5.25 5.25 0 1 0 -10.5 0zM393.75 147 a5.25 5.25 0 1 0 10.5 0 a5.25 5.25 0 1 0 -10.5 0zM183.75 357 a5.25 5.25 0 1 0 10.5 0 a5.25 5.25 0 1 0 -10.5 0z" fill="black"></path><path d="M15.75 315 a5.25 5.25 0 1 0 10.5 0 a5.25 5.25 0 1 0 -10.5 0z" fill="black"></path><path d="M57.75 231 a5.25 5.25 0 1 0 10.5 0 a5.25 5.25 0 1 0 -10.5 0zM141.75 189 a5.25 5.25 0 1 0 10.5 0 a5.25 5.25 0 1 0 -10.5 0z" fill="black"></path><path d="M57.75 357 a5.25 5.25 0 1 0 10.5 0 a5.25 5.25 0 1 0 -10.5 0z" fill="black"></path><path d="M309.75 399 a5.25 5.25 0 1 0 10.5 0 a5.25 5.25 0 1 0 -10.5 0zM309.75 441 a5.25 5.25 0 1 0 10.5 0 a5.25 5.25 0 1 0 -10.5 0zM351.75 483 a5.25 5.25 0 1 0 10.5 0 a5.25 5.25 0 1 0 -10.5 0zM225.75 483 a5.25 5.25 0 1 0 10.5 0 a5.25 5.25 0 1 0 -10.5 0z" fill="black"></path><path d="M99.75 147 a5.25 5.25 0 1 0 10.5 0 a5.25 5.25 0 1 0 -10.5 0zM141.75 105 a5.25 5.25 0 1 0 10.5 0 a5.25 5.25 0 1 0 -10.5 0z" fill="black"></path></mask></defs></svg>