<svg xmlns="http://www.w3.org/2000/svg" version="1.1" xmlns:xlink="http://www.w3.org/1999/xlink" xmlns:svgjs="http://svgjs.dev/svgjs" width="1440" height="560" preserveAspectRatio="none" viewBox="0 0 1440 560"><g mask="url(&quot;#SvgjsMask1412&quot;)" fill="none"><g mask="url(&quot;#SvgjsMask1413&quot;)"><path d="M231 231L273 273M21 231L63 273L105 273M357 231L399 231L441 231M-21 273L21 231L63 231L105 231L147 231L189 231L231 231L273 231L315 231L357 231L399 189L441 189L483 189L525 189" stroke="rgba(98, 167, 183, 1)" stroke-width="7"></path><path d="M514.5 189 a10.5 10.5 0 1 0 21 0 a10.5 10.5 0 1 0 -21 0zM262.5 273 a10.5 10.5 0 1 0 21 0 a10.5 10.5 0 1 0 -21 0zM94.5 273 a10.5 10.5 0 1 0 21 0 a10.5 10.5 0 1 0 -21 0zM430.5 231 a10.5 10.5 0 1 0 21 0 a10.5 10.5 0 1 0 -21 0z" fill="rgba(98, 167, 183, 1)"></path><path d="M735 231L777 273M525 273L567 273L609 273L651 273L693 273L735 273M987 273L1029 315L1071 315M231 357L273 357L315 357L357 357L399 357L441 357M441 273L483 315L525 315L567 315L609 315M189 357L231 315M-21 315L21 315L63 357L105 357L147 357L189 357L231 357L273 315L315 273L357 273L399 273L441 273L483 273L525 273L567 231L609 231L651 231L693 231L735 231L777 231L819 231L861 231L903 273L945 273L987 273L1029 273" stroke="rgba(74, 123, 190, 1)" stroke-width="7"></path><path d="M1018.5 273 a10.5 10.5 0 1 0 21 0 a10.5 10.5 0 1 0 -21 0zM766.5 273 a10.5 10.5 0 1 0 21 0 a10.5 10.5 0 1 0 -21 0zM724.5 273 a10.5 10.5 0 1 0 21 0 a10.5 10.5 0 1 0 -21 0zM1060.5 315 a10.5 10.5 0 1 0 21 0 a10.5 10.5 0 1 0 -21 0zM430.5 357 a10.5 10.5 0 1 0 21 0 a10.5 10.5 0 1 0 -21 0zM598.5 315 a10.5 10.5 0 1 0 21 0 a10.5 10.5 0 1 0 -21 0zM220.5 315 a10.5 10.5 0 1 0 21 0 a10.5 10.5 0 1 0 -21 0z" fill="rgba(74, 123, 190, 1)"></path><path d="M105 189L147 147L189 147M315 189L357 147M441 147L483 147M-21 231L21 189L63 189L105 189L147 189L189 189L231 189L273 189L315 189L357 189L399 147L441 147L483 105" stroke="rgba(56, 171, 112, 1)" stroke-width="7"></path><path d="M472.5 105 a10.5 10.5 0 1 0 21 0 a10.5 10.5 0 1 0 -21 0zM178.5 147 a10.5 10.5 0 1 0 21 0 a10.5 10.5 0 1 0 -21 0zM346.5 147 a10.5 10.5 0 1 0 21 0 a10.5 10.5 0 1 0 -21 0zM472.5 147 a10.5 10.5 0 1 0 21 0 a10.5 10.5 0 1 0 -21 0z" fill="rgba(56, 171, 112, 1)"></path><path d="M-21 357L21 357L63 399L105 399L147 399L189 399L231 399L273 399L315 399" stroke="rgba(98, 167, 183, 1)" stroke-width="7"></path><path d="M304.5 399 a10.5 10.5 0 1 0 21 0 a10.5 10.5 0 1 0 -21 0z" fill="rgba(98, 167, 183, 1)"></path><path d="M-21 189L21 147L63 147" stroke="rgba(74, 123, 190, 1)" stroke-width="7"></path><path d="M52.5 147 a10.5 10.5 0 1 0 21 0 a10.5 10.5 0 1 0 -21 0z" fill="rgba(74, 123, 190, 1)"></path><path d="M861 483L903 441L945 399L987 399L1029 399L1071 399M441 441L483 399L525 399L567 399L609 399M399 441L441 399M231 441L273 483M189 441L231 483M357 441L399 399M-21 399L21 399L63 441L105 441L147 441L189 441L231 441L273 441L315 441L357 441L399 441L441 441L483 441L525 441L567 441L609 441L651 441L693 483L735 483L777 483L819 483L861 483L903 483L945 483" stroke="rgba(98, 167, 183, 1)" stroke-width="7"></path><path d="M934.5 483 a10.5 10.5 0 1 0 21 0 a10.5 10.5 0 1 0 -21 0zM1060.5 399 a10.5 10.5 0 1 0 21 0 a10.5 10.5 0 1 0 -21 0zM598.5 399 a10.5 10.5 0 1 0 21 0 a10.5 10.5 0 1 0 -21 0zM430.5 399 a10.5 10.5 0 1 0 21 0 a10.5 10.5 0 1 0 -21 0zM262.5 483 a10.5 10.5 0 1 0 21 0 a10.5 10.5 0 1 0 -21 0zM220.5 483 a10.5 10.5 0 1 0 21 0 a10.5 10.5 0 1 0 -21 0zM388.5 399 a10.5 10.5 0 1 0 21 0 a10.5 10.5 0 1 0 -21 0z" fill="rgba(98, 167, 183, 1)"></path><path d="M231 105L273 147L315 147M-21 147L21 105L63 105L105 105L147 105L189 105L231 105L273 105" stroke="rgba(56, 171, 112, 1)" stroke-width="7"></path><path d="M262.5 105 a10.5 10.5 0 1 0 21 0 a10.5 10.5 0 1 0 -21 0zM304.5 147 a10.5 10.5 0 1 0 21 0 a10.5 10.5 0 1 0 -21 0z" fill="rgba(56, 171, 112, 1)"></path></g></g><defs><mask id="SvgjsMask1412"><rect width="1440" height="560" fill="#ffffff"></rect></mask><mask id="SvgjsMask1413"><rect width="1440" height="560" fill="white"></rect><path d="M519.75 189 a5.25 5.25 0 1 0 10.5 0 a5.25 5.25 0 1 0 -10.5 0zM267.75 273 a5.25 5.25 0 1 0 10.5 0 a5.25 5.25 0 1 0 -10.5 0zM99.75 273 a5.25 5.25 0 1 0 10.5 0 a5.25 5.25 0 1 0 -10.5 0zM435.75 231 a5.25 5.25 0 1 0 10.5 0 a5.25 5.25 0 1 0 -10.5 0z" fill="black"></path><path d="M1023.75 273 a5.25 5.25 0 1 0 10.5 0 a5.25 5.25 0 1 0 -10.5 0zM771.75 273 a5.25 5.25 0 1 0 10.5 0 a5.25 5.25 0 1 0 -10.5 0zM729.75 273 a5.25 5.25 0 1 0 10.5 0 a5.25 5.25 0 1 0 -10.5 0zM1065.75 315 a5.25 5.25 0 1 0 10.5 0 a5.25 5.25 0 1 0 -10.5 0zM435.75 357 a5.25 5.25 0 1 0 10.5 0 a5.25 5.25 0 1 0 -10.5 0zM603.75 315 a5.25 5.25 0 1 0 10.5 0 a5.25 5.25 0 1 0 -10.5 0zM225.75 315 a5.25 5.25 0 1 0 10.5 0 a5.25 5.25 0 1 0 -10.5 0z" fill="black"></path><path d="M477.75 105 a5.25 5.25 0 1 0 10.5 0 a5.25 5.25 0 1 0 -10.5 0zM183.75 147 a5.25 5.25 0 1 0 10.5 0 a5.25 5.25 0 1 0 -10.5 0zM351.75 147 a5.25 5.25 0 1 0 10.5 0 a5.25 5.25 0 1 0 -10.5 0zM477.75 147 a5.25 5.25 0 1 0 10.5 0 a5.25 5.25 0 1 0 -10.5 0z" fill="black"></path><path d="M309.75 399 a5.25 5.25 0 1 0 10.5 0 a5.25 5.25 0 1 0 -10.5 0z" fill="black"></path><path d="M57.75 147 a5.25 5.25 0 1 0 10.5 0 a5.25 5.25 0 1 0 -10.5 0z" fill="black"></path><path d="M939.75 483 a5.25 5.25 0 1 0 10.5 0 a5.25 5.25 0 1 0 -10.5 0zM1065.75 399 a5.25 5.25 0 1 0 10.5 0 a5.25 5.25 0 1 0 -10.5 0zM603.75 399 a5.25 5.25 0 1 0 10.5 0 a5.25 5.25 0 1 0 -10.5 0zM435.75 399 a5.25 5.25 0 1 0 10.5 0 a5.25 5.25 0 1 0 -10.5 0zM267.75 483 a5.25 5.25 0 1 0 10.5 0 a5.25 5.25 0 1 0 -10.5 0zM225.75 483 a5.25 5.25 0 1 0 10.5 0 a5.25 5.25 0 1 0 -10.5 0zM393.75 399 a5.25 5.25 0 1 0 10.5 0 a5.25 5.25 0 1 0 -10.5 0z" fill="black"></path><path d="M267.75 105 a5.25 5.25 0 1 0 10.5 0 a5.25 5.25 0 1 0 -10.5 0zM309.75 147 a5.25 5.25 0 1 0 10.5 0 a5.25 5.25 0 1 0 -10.5 0z" fill="black"></path></mask></defs></svg>