<svg xmlns="http://www.w3.org/2000/svg" version="1.1" xmlns:xlink="http://www.w3.org/1999/xlink" xmlns:svgjs="http://svgjs.dev/svgjs" width="1440" height="560" preserveAspectRatio="none" viewBox="0 0 1440 560"><g mask="url(&quot;#SvgjsMask1340&quot;)" fill="none"><g mask="url(&quot;#SvgjsMask1341&quot;)"><path d="M231 273L273 231L315 231L357 231M189 273L231 231L273 189L315 189L357 189M-21 273L21 273L63 273L105 273L147 273L189 273L231 273L273 273" stroke="rgba(56, 171, 112, 1)" stroke-width="7"></path><path d="M262.5 273 a10.5 10.5 0 1 0 21 0 a10.5 10.5 0 1 0 -21 0zM346.5 231 a10.5 10.5 0 1 0 21 0 a10.5 10.5 0 1 0 -21 0zM346.5 189 a10.5 10.5 0 1 0 21 0 a10.5 10.5 0 1 0 -21 0z" fill="rgba(56, 171, 112, 1)"></path><path d="M63 315L105 357L147 357L189 357M-21 315L21 315L63 315L105 315L147 315L189 315L231 315" stroke="rgba(74, 123, 190, 1)" stroke-width="7"></path><path d="M220.5 315 a10.5 10.5 0 1 0 21 0 a10.5 10.5 0 1 0 -21 0zM178.5 357 a10.5 10.5 0 1 0 21 0 a10.5 10.5 0 1 0 -21 0z" fill="rgba(74, 123, 190, 1)"></path><path d="M-21 231L21 231L63 231L105 231L147 231" stroke="rgba(74, 123, 190, 1)" stroke-width="7"></path><path d="M136.5 231 a10.5 10.5 0 1 0 21 0 a10.5 10.5 0 1 0 -21 0z" fill="rgba(74, 123, 190, 1)"></path><path d="M315 357L357 315L399 315L441 315L483 315L525 315L567 315M693 357L735 399M525 357L567 399L609 399L651 399L693 399L735 441M273 357L315 399M-21 357L21 357L63 399L105 399L147 399L189 399L231 357L273 357L315 357L357 357L399 357L441 357L483 357L525 357L567 357L609 357L651 357L693 357L735 357" stroke="rgba(56, 171, 112, 1)" stroke-width="7"></path><path d="M724.5 357 a10.5 10.5 0 1 0 21 0 a10.5 10.5 0 1 0 -21 0zM556.5 315 a10.5 10.5 0 1 0 21 0 a10.5 10.5 0 1 0 -21 0zM724.5 399 a10.5 10.5 0 1 0 21 0 a10.5 10.5 0 1 0 -21 0zM724.5 441 a10.5 10.5 0 1 0 21 0 a10.5 10.5 0 1 0 -21 0zM304.5 399 a10.5 10.5 0 1 0 21 0 a10.5 10.5 0 1 0 -21 0z" fill="rgba(56, 171, 112, 1)"></path><path d="M483 105L525 147M567 105L609 105M105 189L147 189L189 189L231 189M357 147L399 189L441 189L483 189L525 189L567 189M-21 189L21 189L63 189L105 189L147 147L189 147L231 147L273 147L315 147L357 147L399 105L441 105L483 105L525 105L567 105L609 147L651 147" stroke="rgba(56, 171, 112, 1)" stroke-width="7"></path><path d="M640.5 147 a10.5 10.5 0 1 0 21 0 a10.5 10.5 0 1 0 -21 0zM514.5 147 a10.5 10.5 0 1 0 21 0 a10.5 10.5 0 1 0 -21 0zM598.5 105 a10.5 10.5 0 1 0 21 0 a10.5 10.5 0 1 0 -21 0zM220.5 189 a10.5 10.5 0 1 0 21 0 a10.5 10.5 0 1 0 -21 0zM556.5 189 a10.5 10.5 0 1 0 21 0 a10.5 10.5 0 1 0 -21 0z" fill="rgba(56, 171, 112, 1)"></path><path d="M525 483L567 441L609 441L651 441M189 441L231 483L273 483M399 483L441 441L483 441L525 399M-21 399L21 399L63 441L105 441L147 441L189 441L231 441L273 441L315 483L357 483L399 483L441 483L483 483L525 483L567 483" stroke="rgba(74, 123, 190, 1)" stroke-width="7"></path><path d="M556.5 483 a10.5 10.5 0 1 0 21 0 a10.5 10.5 0 1 0 -21 0zM640.5 441 a10.5 10.5 0 1 0 21 0 a10.5 10.5 0 1 0 -21 0zM262.5 483 a10.5 10.5 0 1 0 21 0 a10.5 10.5 0 1 0 -21 0zM514.5 399 a10.5 10.5 0 1 0 21 0 a10.5 10.5 0 1 0 -21 0z" fill="rgba(74, 123, 190, 1)"></path><path d="M63 147L105 105M21 147L63 105M-21 147L21 147L63 147L105 147L147 105L189 105L231 105L273 105L315 105L357 105" stroke="rgba(56, 171, 112, 1)" stroke-width="7"></path><path d="M346.5 105 a10.5 10.5 0 1 0 21 0 a10.5 10.5 0 1 0 -21 0zM94.5 105 a10.5 10.5 0 1 0 21 0 a10.5 10.5 0 1 0 -21 0zM52.5 105 a10.5 10.5 0 1 0 21 0 a10.5 10.5 0 1 0 -21 0z" fill="rgba(56, 171, 112, 1)"></path></g></g><defs><mask id="SvgjsMask1340"><rect width="1440" height="560" fill="#ffffff"></rect></mask><mask id="SvgjsMask1341"><rect width="1440" height="560" fill="white"></rect><path d="M267.75 273 a5.25 5.25 0 1 0 10.5 0 a5.25 5.25 0 1 0 -10.5 0zM351.75 231 a5.25 5.25 0 1 0 10.5 0 a5.25 5.25 0 1 0 -10.5 0zM351.75 189 a5.25 5.25 0 1 0 10.5 0 a5.25 5.25 0 1 0 -10.5 0z" fill="black"></path><path d="M225.75 315 a5.25 5.25 0 1 0 10.5 0 a5.25 5.25 0 1 0 -10.5 0zM183.75 357 a5.25 5.25 0 1 0 10.5 0 a5.25 5.25 0 1 0 -10.5 0z" fill="black"></path><path d="M141.75 231 a5.25 5.25 0 1 0 10.5 0 a5.25 5.25 0 1 0 -10.5 0z" fill="black"></path><path d="M729.75 357 a5.25 5.25 0 1 0 10.5 0 a5.25 5.25 0 1 0 -10.5 0zM561.75 315 a5.25 5.25 0 1 0 10.5 0 a5.25 5.25 0 1 0 -10.5 0zM729.75 399 a5.25 5.25 0 1 0 10.5 0 a5.25 5.25 0 1 0 -10.5 0zM729.75 441 a5.25 5.25 0 1 0 10.5 0 a5.25 5.25 0 1 0 -10.5 0zM309.75 399 a5.25 5.25 0 1 0 10.5 0 a5.25 5.25 0 1 0 -10.5 0z" fill="black"></path><path d="M645.75 147 a5.25 5.25 0 1 0 10.5 0 a5.25 5.25 0 1 0 -10.5 0zM519.75 147 a5.25 5.25 0 1 0 10.5 0 a5.25 5.25 0 1 0 -10.5 0zM603.75 105 a5.25 5.25 0 1 0 10.5 0 a5.25 5.25 0 1 0 -10.5 0zM225.75 189 a5.25 5.25 0 1 0 10.5 0 a5.25 5.25 0 1 0 -10.5 0zM561.75 189 a5.25 5.25 0 1 0 10.5 0 a5.25 5.25 0 1 0 -10.5 0z" fill="black"></path><path d="M561.75 483 a5.25 5.25 0 1 0 10.5 0 a5.25 5.25 0 1 0 -10.5 0zM645.75 441 a5.25 5.25 0 1 0 10.5 0 a5.25 5.25 0 1 0 -10.5 0zM267.75 483 a5.25 5.25 0 1 0 10.5 0 a5.25 5.25 0 1 0 -10.5 0zM519.75 399 a5.25 5.25 0 1 0 10.5 0 a5.25 5.25 0 1 0 -10.5 0z" fill="black"></path><path d="M351.75 105 a5.25 5.25 0 1 0 10.5 0 a5.25 5.25 0 1 0 -10.5 0zM99.75 105 a5.25 5.25 0 1 0 10.5 0 a5.25 5.25 0 1 0 -10.5 0zM57.75 105 a5.25 5.25 0 1 0 10.5 0 a5.25 5.25 0 1 0 -10.5 0z" fill="black"></path></mask></defs></svg>