<svg xmlns="http://www.w3.org/2000/svg" version="1.1" xmlns:xlink="http://www.w3.org/1999/xlink" xmlns:svgjs="http://svgjs.dev/svgjs" width="995" height="427" preserveAspectRatio="none" viewBox="0 0 995 427"><g mask="url(&quot;#SvgjsMask1018&quot;)" fill="none"><path d="M-64.35 378.79C41.39 373.74 123.47 190.64 315.12 190.91 506.77 191.18 575.46 470.04 694.59 486.83" stroke="rgba(27, 47, 98, 1)" stroke-width="2"></path><path d="M-72.77 125.61C-5.01 125.87 60.1 178.99 192.97 178.98 325.84 178.98 310.49 118.46 458.7 125.61 606.91 132.76 625.95 411.31 724.44 443.2" stroke="rgba(27, 47, 98, 1)" stroke-width="2"></path><path d="M-150.44 209.01C-53.37 208.2 67.78 102.99 225.25 110.8 382.71 118.61 326.67 430.26 413.09 492.11" stroke="rgba(27, 47, 98, 1)" stroke-width="2"></path><path d="M-124.39 132.62C11.97 134.64 184.08 292.7 395.09 299.15 606.1 305.6 578.96 451.91 654.83 458.04" stroke="rgba(27, 47, 98, 1)" stroke-width="2"></path><path d="M-28.85 205.34C89.89 203.05 240.91 43.85 419.14 47.35 597.38 50.85 545.31 385.63 643.14 443.86" stroke="rgba(27, 47, 98, 1)" stroke-width="2"></path></g><defs><mask id="SvgjsMask1018"><rect width="995" height="427" fill="#ffffff"></rect></mask></defs></svg>