<svg xmlns="http://www.w3.org/2000/svg" version="1.1" xmlns:xlink="http://www.w3.org/1999/xlink" xmlns:svgjs="http://svgjs.dev/svgjs" width="995" height="427" preserveAspectRatio="none" viewBox="0 0 995 427"><g mask="url(&quot;#SvgjsMask1003&quot;)" fill="none"><path d="M333.86 443.49C434.86 415.23 461.11 138.99 616.03 133.03 770.95 127.07 757.12 186.41 898.2 186.41 1039.28 186.41 1108.58 133.26 1180.37 133.03" stroke="rgba(27, 47, 98, 1)" stroke-width="2"></path><path d="M266.4 430.82C367.07 390.54 326.34 82.61 523.7 81.68 721.05 80.75 901.72 262.57 1038.29 265.29" stroke="rgba(27, 47, 98, 1)" stroke-width="2"></path><path d="M667.41 475.18C737.05 473.21 778.08 380 925.65 370.46 1073.23 360.92 1105.2 195.89 1183.9 186.85" stroke="rgba(27, 47, 98, 1)" stroke-width="2"></path><path d="M422.95 478.31C485.6 476.44 468.58 387.01 654.62 382.49 840.66 377.97 994.53 214.38 1117.95 211.69" stroke="rgba(27, 47, 98, 1)" stroke-width="2"></path><path d="M445.47 486.07C546.35 461.51 583.25 191.82 736.12 189.43 888.98 187.04 949.37 294.51 1026.76 296.18" stroke="rgba(27, 47, 98, 1)" stroke-width="2"></path></g><defs><mask id="SvgjsMask1003"><rect width="995" height="427" fill="#ffffff"></rect></mask></defs></svg>