<svg xmlns="http://www.w3.org/2000/svg" version="1.1" xmlns:xlink="http://www.w3.org/1999/xlink" xmlns:svgjs="http://svgjs.dev/svgjs" width="995" height="427" preserveAspectRatio="none" viewBox="0 0 995 427"><g mask="url(&quot;#SvgjsMask1007&quot;)" fill="none"><path d="M635.64-72.13C536.46-69.16 468.33 73.32 269 79.85 69.66 86.38 2.52 238.54-97.65 242.11" stroke="rgba(27, 47, 98, 1)" stroke-width="2"></path><path d="M781.68-46.23C687-19.83 716.77 244.35 516.96 244.49 317.15 244.63 129.04 47.13-12.47 43.8" stroke="rgba(27, 47, 98, 1)" stroke-width="2"></path><path d="M900.97-4.61C789.96 19.1 748.99 304.08 572.36 308.75 395.73 313.42 408.06 255.37 243.76 255.38 79.45 255.38-1.62 308.58-84.85 308.75" stroke="rgba(27, 47, 98, 1)" stroke-width="2"></path><path d="M830.94-35.88C717.58 11.65 711.53 350.81 544.8 363.96 378.08 377.11 401.73 310.58 258.67 310.59 115.6 310.59 45.3 363.73-27.47 363.96" stroke="rgba(27, 47, 98, 1)" stroke-width="2"></path><path d="M818.41-7.91C716.97 7.59 666.9 247.87 499.39 250.36 331.88 252.85 339.88 196.98 180.37 196.99 20.86 196.99-57.79 250.18-138.65 250.36" stroke="rgba(27, 47, 98, 1)" stroke-width="2"></path></g><defs><mask id="SvgjsMask1007"><rect width="995" height="427" fill="#ffffff"></rect></mask></defs></svg>