<svg xmlns="http://www.w3.org/2000/svg" version="1.1" xmlns:xlink="http://www.w3.org/1999/xlink" xmlns:svgjs="http://svgjs.dev/svgjs" width="995" height="427" preserveAspectRatio="none" viewBox="0 0 995 427"><g mask="url(&quot;#SvgjsMask1023&quot;)" fill="none"><path d="M1152.01 211.65C1035.16 205.93 955.2 6.65 733.43 2.42 511.67-1.81 421.62-81.77 314.86-82.19" stroke="rgba(27, 47, 98, 1)" stroke-width="2"></path><path d="M1045.78 132.83C941.54 137 817.47 310.75 666.99 307.9 516.51 305.05 563.86-6.64 477.6-66.21" stroke="rgba(27, 47, 98, 1)" stroke-width="2"></path><path d="M1193.67 171.75C1082.74 172.75 934.67 289.91 765.18 287.04 595.68 284.17 639.52-0.92 550.93-44.33" stroke="rgba(27, 47, 98, 1)" stroke-width="2"></path><path d="M1041.01 147.98C964.8 152.52 912.92 295.04 772.33 293.16 631.73 291.28 601.9 12.13 503.64-17.99" stroke="rgba(27, 47, 98, 1)" stroke-width="2"></path><path d="M1100.08 246.5C969.81 242.26 811.05 45.1 620.71 41.54 430.38 37.98 442.03-3.9 381.03-4.1" stroke="rgba(27, 47, 98, 1)" stroke-width="2"></path></g><defs><mask id="SvgjsMask1023"><rect width="995" height="427" fill="#ffffff"></rect></mask></defs></svg>