<svg xmlns="http://www.w3.org/2000/svg" version="1.1" xmlns:xlink="http://www.w3.org/1999/xlink" xmlns:svgjs="http://svgjs.dev/svgjs" width="520" height="390" preserveAspectRatio="none" viewBox="0 0 520 390"><g mask="url(&quot;#SvgjsMask1056&quot;)" fill="none"><rect width="520" height="390" x="0" y="0" fill="rgba(15, 36, 90, 1)"></rect><path d="M -220.3628820120689,211 C -194.36,183.4 -142.36,54.2 -90.36288201206888,73 C -38.36,91.8 -12.36,291.2 39.63711798793112,305 C 91.64,318.8 117.64,147.8 169.6371179879311,142 C 221.64,136.2 247.64,277.8 299.6371179879311,276 C 351.64,274.2 385.56,130.6 429.6371179879311,133 C 473.71,135.4 501.93,257 520,288" stroke="rgba(73, 121, 187, 1)" stroke-width="2"></path><path d="M -255.50650397944477,283 C -229.51,252.2 -177.51,124.8 -125.50650397944477,129 C -73.51,133.2 -47.51,302.4 4.493496020555227,304 C 56.49,305.6 82.49,132.8 134.49349602055523,137 C 186.49,141.2 212.49,318.6 264.4934960205552,325 C 316.49,331.4 343.39,186.4 394.4934960205552,169 C 445.59,151.6 494.9,224.2 520,238" stroke="rgba(73, 121, 187, 1)" stroke-width="2"></path><path d="M -170.31736547058676,137 C -144.32,168.8 -92.32,305.4 -40.31736547058678,296 C 11.68,286.6 37.68,86.2 89.68263452941322,90 C 141.68,93.8 167.68,315.2 219.68263452941324,315 C 271.68,314.8 297.68,95.4 349.68263452941324,89 C 401.68,82.6 445.62,263.8 479.68263452941324,283 C 513.75,302.2 511.94,204.6 520,185" stroke="rgba(73, 121, 187, 1)" stroke-width="2"></path><path d="M -196.95390548846655,76 C -170.95,115.2 -118.95,260 -66.95390548846653,272 C -14.95,284 11.05,143.6 63.04609451153347,136 C 115.05,128.4 141.05,243 193.04609451153345,234 C 245.05,225 271.05,79.8 323.04609451153345,91 C 375.05,102.2 413.66,273.4 453.04609451153345,290 C 492.44,306.6 506.61,197.2 520,174" stroke="rgba(73, 121, 187, 1)" stroke-width="2"></path></g><defs><mask id="SvgjsMask1056"><rect width="520" height="390" fill="#ffffff"></rect></mask></defs></svg>